<?xml version="1.0" encoding="UTF-8" standalone="no"?>
<!-- Created with Inkscape (http://www.inkscape.org/) -->

<svg
   sodipodi:docname="Kassin-Vesm3.svg"
   inkscape:version="1.1.1 (3bf5ae0d25, 2021-09-20)"
   id="svg5"
   version="1.1"
   viewBox="0 0 1585.891 1109.5393"
   height="1109.5393mm"
   width="1585.891mm"
   xmlns:inkscape="http://www.inkscape.org/namespaces/inkscape"
   xmlns:sodipodi="http://sodipodi.sourceforge.net/DTD/sodipodi-0.dtd"
   xmlns="http://www.w3.org/2000/svg"
   xmlns:svg="http://www.w3.org/2000/svg">
  <sodipodi:namedview
     id="namedview7"
     pagecolor="#ffffff"
     bordercolor="#666666"
     borderopacity="1.0"
     inkscape:pageshadow="2"
     inkscape:pageopacity="0.0"
     inkscape:pagecheckerboard="0"
     inkscape:document-units="mm"
     showgrid="false"
     inkscape:zoom="0.15004829"
     inkscape:cx="3255.6187"
     inkscape:cy="1876.0628"
     inkscape:window-width="1920"
     inkscape:window-height="1001"
     inkscape:window-x="-9"
     inkscape:window-y="-9"
     inkscape:window-maximized="1"
     inkscape:current-layer="layer1"
     showguides="false" />
  <defs
     id="defs2" />
  <g
     inkscape:label="Layer 1"
     inkscape:groupmode="layer"
     id="layer1"
     transform="translate(-3.5,590.73927)">
    <g
       id="panel9377-9"
       transform="translate(1004.6199,-106.41566)"
       style="stroke:#000000;stroke-opacity:1;stroke-width:1;stroke-miterlimit:4;stroke-dasharray:none">
      <path
         style="fill:none;stroke:#000000;stroke-width:1;stroke-opacity:1;stroke-miterlimit:4;stroke-dasharray:none"
         d="m 108.1,218.2 h 6.406 v -3 h 6.1 v 3 h 6.355 v -3 h 6.1 v 3 h 6.356 v -3 h 6.1 v 3 h 6.355 v -3 h 6.1 v 3 h 6.356 v -3 h 6.1 v 3 h 6.355 v -3 h 6.1 v 3 h 6.356 v -3 h 6.1 v 3 h 6.355 v -3 h 6.1 v 3 h 6.406"
         id="path231-3" />
      <path
         style="fill:none;stroke:#000000;stroke-width:1;stroke-opacity:1;stroke-miterlimit:4;stroke-dasharray:none"
         d="m 214.2,218.2 v 3.506 h -3 v 5.9 h 3 v 6.555 h -3 v 5.9 h 3 v 6.556 h -3 v 5.9 h 3 v 6.555 h -3 v 5.9 h 3 v 6.556 h -3 v 5.9 h 3 v 6.555 h -3 v 5.9 h 3 v 6.556 h -3 v 5.9 h 3 v 6.555 h -3 v 5.9 h 3 v 3.506"
         id="path233-9" />
      <path
         style="fill:none;stroke:#000000;stroke-width:1;stroke-opacity:1;stroke-miterlimit:4;stroke-dasharray:none"
         d="m 214.2,318.3 h -6.406 v 0 h -6.1 v 0 h -6.355 v 0 h -6.1 v 0 h -6.356 v 0 h -6.1 v 0 h -6.355 v 0 h -6.1 v 0 h -6.356 v 0 h -6.1 v 0 h -6.355 v 0 h -6.1 v 0 h -6.356 v 0 h -6.1 v 0 h -6.355 v 0 h -6.1 v 0 H 108.1"
         id="path235-6" />
      <path
         style="fill:none;stroke:#000000;stroke-width:1;stroke-opacity:1;stroke-miterlimit:4;stroke-dasharray:none"
         d="m 108.1,318.3 v -3.506 h 3 v -5.9 h -3 v -6.555 h 3 v -5.9 h -3 v -6.556 h 3 v -5.9 h -3 v -6.555 h 3 v -5.9 h -3 v -6.556 h 3 v -5.9 h -3 v -6.555 h 3 v -5.9 h -3 v -6.556 h 3 v -5.9 h -3 v -6.555 h 3 v -5.9 h -3 V 218.2"
         id="path237-2" />
    </g>
    <g
       id="panel1714-7"
       transform="translate(517.94318,139.56766)">
      <path
         style="fill:none;stroke:#000000;stroke-width:1"
         d="m 490.67667,-134.88332 h 3.40556 v -3 h 6.10004 v 3 h 6.3555 v -3 h 6.1 v 3 h 6.3556 v -3 h 6.1 v 3 h 6.3555 v -3 h 6.1 v 3 h 6.3556 v -3 h 6.1 v 3 h 6.3555 v -3 h 6.1 v 3 h 6.3556 v -3 h 6.1 v 3 h 6.3555 v -3 h 6.0996 v 3 h 3.406"
         id="path240-9" />
      <path
         style="fill:none;stroke:#000000;stroke-width:1"
         d="m 590.77667,-134.88332 v 3.406 h 3 v 6.1 h -3 v 6.355 h 3 v 6.1 h -3 v 6.356 h 3 v 6.1 h -3 v 6.355002 h 3 v 6.1 h -3 v 6.356 h 3 v 6.1 h -3 v 6.355 h 3 v 6.1 h -3 v 6.356 h 3 v 6.1 h -3 v 6.355 h 3 v 6.1 h -3 v 3.406"
         id="path242-5" />
      <path
         style="fill:none;stroke:#000000;stroke-width:1"
         d="m 590.77667,-34.783318 h -3.406 v 3 h -6.0996 v -3 h -6.3555 v 3 h -6.1 v -3 h -6.3556 v 3 h -6.1 v -3 h -6.3555 v 3 h -6.1 v -3 h -6.3556 v 3 h -6.1 v -3 h -6.3555 v 3 h -6.1 v -3 h -6.3556 v 3 h -6.1 v -3 h -6.3555 v 3 h -6.10004 v -3 h -3.40556"
         id="path244-1" />
      <path
         style="fill:none;stroke:#000000;stroke-width:1"
         d="m 490.67667,-34.783318 v -3.406 0 -6.1 0 -6.355 0 -6.1 0 -6.356 0 -6.1 0 -6.355 0 -6.1 0 -6.356 0 -6.1 0 -6.355002 0 -6.1 0 -6.356 0 -6.1 0 -6.355 0 -6.1 0 -3.406"
         id="path246-1" />
    </g>
    <g
       id="panel9362-96"
       transform="translate(1004.6199,-106.41566)">
      <path
         style="fill:none;stroke:#000000;stroke-width:1"
         d="m 108.1,108.1 h 6.506 v 3 h 5.9 v -3 h 6.555 v 3 h 5.9 v -3 h 6.556 v 3 h 5.9 v -3 h 6.555 v 3 h 5.9 v -3 h 6.556 v 3 h 5.9 v -3 h 6.555 v 3 h 5.9 v -3 h 6.556 v 3 h 5.9 v -3 h 6.555 v 3 h 5.9 v -3 h 6.506"
         id="path249-2" />
      <path
         style="fill:none;stroke:#000000;stroke-width:1"
         d="m 214.2,108.1 v 6.506 h -3 v 5.9 h 3 v 6.555 h -3 v 5.9 h 3 v 6.556 h -3 v 5.9 h 3 v 6.555 h -3 v 5.9 h 3 v 6.556 h -3 v 5.9 h 3 v 6.555 h -3 v 5.9 h 3 v 6.556 h -3 v 5.9 h 3 v 6.555 h -3 v 5.9 h 3 v 6.506"
         id="path251-6" />
      <path
         style="fill:none;stroke:#000000;stroke-width:1"
         d="m 214.2,214.2 h -6.506 v -3 h -5.9 v 3 h -6.555 v -3 h -5.9 v 3 h -6.556 v -3 h -5.9 v 3 h -6.555 v -3 h -5.9 v 3 h -6.556 v -3 h -5.9 v 3 h -6.555 v -3 h -5.9 v 3 h -6.556 v -3 h -5.9 v 3 h -6.555 v -3 h -5.9 v 3 H 108.1"
         id="path253-6" />
      <path
         style="fill:none;stroke:#000000;stroke-width:1"
         d="m 108.1,214.2 v -6.506 h 3 v -5.9 h -3 v -6.555 h 3 v -5.9 h -3 v -6.556 h 3 v -5.9 h -3 v -6.555 h 3 v -5.9 h -3 v -6.556 h 3 v -5.9 h -3 v -6.555 h 3 v -5.9 h -3 v -6.556 h 3 v -5.9 h -3 v -6.555 h 3 v -5.9 h -3 V 108.1"
         id="path255-7" />
    </g>
    <g
       id="panel6703-2"
       transform="translate(1004.6199,-106.41566)">
      <path
         style="fill:none;stroke:#000000;stroke-width:1"
         d="m 218.2,111.1 h 3.406 v -3 h 6.1 v 3 h 6.355 v -3 h 6.1 v 3 h 6.356 v -3 h 6.1 v 3 h 6.355 v -3 h 6.1 v 3 h 6.356 v -3 h 6.1 v 3 h 6.355 v -3 h 6.1 v 3 h 6.356 v -3 h 6.1 v 3 h 6.355 v -3 h 6.1 v 3 h 3.406"
         id="path258-6" />
      <path
         style="fill:none;stroke:#000000;stroke-width:1"
         d="m 318.3,111.1 v 3.406 0 6.1 0 6.355 0 6.1 0 6.356 0 6.1 0 6.355 0 6.1 0 6.356 0 6.1 0 6.355 0 6.1 0 6.356 0 6.1 0 6.355 0 6.1 0 3.406"
         id="path260-31" />
      <path
         style="fill:none;stroke:#000000;stroke-width:1"
         d="m 318.3,211.2 h -3.406 v 3 h -6.1 v -3 h -6.355 v 3 h -6.1 v -3 h -6.356 v 3 h -6.1 v -3 h -6.355 v 3 h -6.1 v -3 h -6.356 v 3 h -6.1 v -3 h -6.355 v 3 h -6.1 v -3 h -6.356 v 3 h -6.1 v -3 h -6.355 v 3 h -6.1 v -3 H 218.2"
         id="path262-5" />
      <path
         style="fill:none;stroke:#000000;stroke-width:1"
         d="m 218.2,211.2 v -3.406 h -3 v -6.1 h 3 v -6.355 h -3 v -6.1 h 3 v -6.356 h -3 v -6.1 h 3 v -6.355 h -3 v -6.1 h 3 v -6.356 h -3 v -6.1 h 3 v -6.355 h -3 v -6.1 h 3 v -6.356 h -3 v -6.1 h 3 v -6.355 h -3 v -6.1 h 3 V 111.1"
         id="path264-4" />
    </g>
    <g
       id="panel176-5"
       transform="translate(1004.6199,-106.41566)">
      <path
         style="fill:none;stroke:#000000;stroke-width:1"
         d="m 108.1,4 h 6.406 v 0 h 6.1 v 0 h 6.355 v 0 h 6.1 v 0 h 6.356 v 0 h 6.1 v 0 h 6.355 v 0 h 6.1 v 0 h 6.356 v 0 h 6.1 v 0 h 6.355 v 0 h 6.1 v 0 h 6.356 v 0 h 6.1 v 0 h 6.355 v 0 h 6.1 v 0 h 6.406"
         id="path267-23" />
      <path
         style="fill:none;stroke:#000000;stroke-width:1"
         d="m 214.2,4 v 3.50556 h -3 v 5.90004 h 3 v 6.5555 h -3 v 5.9 h 3 v 6.5556 h -3 v 5.9 h 3 v 6.5555 h -3 v 5.9 h 3 v 6.5556 h -3 v 5.9 h 3 v 6.5555 h -3 v 5.9 h 3 v 6.5556 h -3 v 5.9 h 3 v 6.5555 h -3 v 5.8996 h 3 v 3.506"
         id="path269-7" />
      <path
         style="fill:none;stroke:#000000;stroke-width:1"
         d="m 214.2,104.1 h -6.406 v 3 h -6.1 v -3 h -6.355 v 3 h -6.1 v -3 h -6.356 v 3 h -6.1 v -3 h -6.355 v 3 h -6.1 v -3 h -6.356 v 3 h -6.1 v -3 h -6.355 v 3 h -6.1 v -3 h -6.356 v 3 h -6.1 v -3 h -6.355 v 3 h -6.1 v -3 H 108.1"
         id="path271-2" />
      <path
         style="fill:none;stroke:#000000;stroke-width:1"
         d="m 108.1,104.1 v -3.506 h 3 v -5.8996 h -3 v -6.5555 h 3 v -5.9 h -3 v -6.5556 h 3 v -5.9 h -3 v -6.5555 h 3 v -5.9 h -3 v -6.5556 h 3 v -5.9 h -3 v -6.5555 h 3 v -5.9 h -3 v -6.5556 h 3 v -5.9 h -3 v -6.5555 h 3 V 7.50556 h -3 V 4"
         id="path273-1" />
    </g>
    <g
       id="panel882"
       transform="translate(3.5266425,-594.23927)">
      <path
         style="fill:none;stroke:#000000;stroke-width:1"
         d="m 108.1,218.2 h 6.176 v -3 h 6.1 v 3 h 6.126 v -3 h 6.1 v 3 h 6.126 v -3 h 6.1 v 3 h 6.126 v -3 h 6.1 v 3 h 6.126 v -3 h 6.1 v 3 h 6.126 v -3 h 6.1 v 3 h 6.125 v -3 h 6.1 v 3 h 6.126 v -3 h 6.1 v 3 h 6.126 v -3 h 6.1 v 3 h 6.126 v -3 h 6.1 v 3 h 6.126 v -3 h 6.1 v 3 h 6.126 v -3 h 6.1 v 3 h 6.126 v -3 h 6.1 v 3 h 6.126 v -3 h 6.1 v 3 h 6.126 v -3 h 6.1 v 3 h 6.126 v -3 h 6.1 v 3 h 6.126 v -3 h 6.1 v 3 h 6.126 v -3 h 6.1 v 3 h 6.126 v -3 h 6.1 v 3 h 6.126 v -3 h 6.1 v 3 h 6.125 v -3 h 6.1 v 3 h 6.126 v -3 h 6.1 v 3 h 6.126 v -3 h 6.1 v 3 h 6.126 v -3 h 6.1 v 3 h 6.126 v -3 h 6.1 v 3 h 6.126 v -3 h 6.1 v 3 h 6.176"
         id="path4080" />
      <path
         style="fill:none;stroke:#000000;stroke-width:1"
         d="m 432.2,218.2 v 3.506 h -3 v 5.9 h 3 v 6.555 h -3 v 5.9 h 3 v 6.556 h -3 v 5.9 h 3 v 6.555 h -3 v 5.9 h 3 v 6.556 h -3 v 5.9 h 3 v 6.555 h -3 v 5.9 h 3 v 6.556 h -3 v 5.9 h 3 v 6.555 h -3 v 5.9 h 3 v 3.506"
         id="path4082" />
      <path
         style="fill:none;stroke:#000000;stroke-width:1"
         d="m 432.2,318.3 h -6.176 v 0 h -6.1 v 0 h -6.126 v 0 h -6.1 v 0 h -6.126 v 0 h -6.1 v 0 h -6.126 v 0 h -6.1 v 0 h -6.126 v 0 h -6.1 v 0 h -6.126 v 0 h -6.1 v 0 h -6.125 v 0 h -6.1 v 0 h -6.126 v 0 h -6.1 v 0 h -6.126 v 0 h -6.1 v 0 h -6.126 v 0 h -6.1 v 0 h -6.126 v 0 h -6.1 v 0 h -6.126 v 0 h -6.1 v 0 h -6.126 v 0 h -6.1 v 0 h -6.126 v 0 h -6.1 v 0 h -6.126 v 0 h -6.1 v 0 h -6.126 v 0 h -6.1 v 0 h -6.126 v 0 h -6.1 v 0 h -6.126 v 0 h -6.1 v 0 h -6.126 v 0 h -6.1 v 0 h -6.126 v 0 h -6.1 v 0 h -6.125 v 0 h -6.1 v 0 h -6.126 v 0 h -6.1 v 0 h -6.126 v 0 h -6.1 v 0 h -6.126 v 0 h -6.1 v 0 h -6.126 v 0 h -6.1 v 0 h -6.126 v 0 h -6.1 v 0 H 108.1"
         id="path4084" />
      <path
         style="fill:none;stroke:#000000;stroke-width:1"
         d="m 108.1,318.3 v -3.506 h 3 v -5.9 h -3 v -6.555 h 3 v -5.9 h -3 v -6.556 h 3 v -5.9 h -3 v -6.555 h 3 v -5.9 h -3 v -6.556 h 3 v -5.9 h -3 v -6.555 h 3 v -5.9 h -3 v -6.556 h 3 v -5.9 h -3 v -6.555 h 3 v -5.9 h -3 V 218.2"
         id="path4086" />
    </g>
    <g
       id="panel1495"
       transform="translate(3.5266425,-594.23927)">
      <path
         style="fill:none;stroke:#000000;stroke-width:1"
         d="m 4,111.1 h 3.40556 v -3 h 6.10004 v 3 h 6.3555 v -3 h 6.1 v 3 h 6.3556 v -3 h 6.1 v 3 h 6.3555 v -3 h 6.1 v 3 h 6.3556 v -3 h 6.1 v 3 h 6.3555 v -3 h 6.1 v 3 h 6.3556 v -3 h 6.1 v 3 h 6.3555 v -3 h 6.0996 v 3 h 3.406"
         id="path4089" />
      <path
         style="fill:none;stroke:#000000;stroke-width:1"
         d="m 104.1,111.1 v 3.406 h 3 v 6.1 h -3 v 6.355 h 3 v 6.1 h -3 v 6.356 h 3 v 6.1 h -3 v 6.355 h 3 v 6.1 h -3 v 6.356 h 3 v 6.1 h -3 v 6.355 h 3 v 6.1 h -3 v 6.356 h 3 v 6.1 h -3 v 6.355 h 3 v 6.1 h -3 v 3.406"
         id="path4091" />
      <path
         style="fill:none;stroke:#000000;stroke-width:1"
         d="m 104.1,211.2 h -3.406 v 3 h -6.0996 v -3 h -6.3555 v 3 h -6.1 v -3 h -6.3556 v 3 h -6.1 v -3 h -6.3555 v 3 h -6.1 v -3 h -6.3556 v 3 h -6.1 v -3 h -6.3555 v 3 h -6.1 v -3 h -6.3556 v 3 h -6.1 v -3 h -6.3555 v 3 H 7.40556 v -3 H 4"
         id="path4093" />
      <path
         style="fill:none;stroke:#000000;stroke-width:1"
         d="m 4,211.2 v -3.406 0 -6.1 0 -6.355 0 -6.1 0 -6.356 0 -6.1 0 -6.355 0 -6.1 0 -6.356 0 -6.1 0 -6.355 0 -6.1 0 -6.356 0 -6.1 0 -6.355 0 -6.1 0 -3.406"
         id="path4095" />
    </g>
    <g
       id="panel2956"
       transform="translate(3.5266425,-594.23927)">
      <path
         style="fill:none;stroke:#000000;stroke-width:1"
         d="m 108.1,108.1 h 6.276 v 3 h 5.9 v -3 h 6.326 v 3 h 5.9 v -3 h 6.326 v 3 h 5.9 v -3 h 6.326 v 3 h 5.9 v -3 h 6.326 v 3 h 5.9 v -3 h 6.326 v 3 h 5.9 v -3 h 6.325 v 3 h 5.9 v -3 h 6.326 v 3 h 5.9 v -3 h 6.326 v 3 h 5.9 v -3 h 6.326 v 3 h 5.9 v -3 h 6.326 v 3 h 5.9 v -3 h 6.326 v 3 h 5.9 v -3 h 6.326 v 3 h 5.9 v -3 h 6.326 v 3 h 5.9 v -3 h 6.326 v 3 h 5.9 v -3 h 6.326 v 3 h 5.9 v -3 h 6.326 v 3 h 5.9 v -3 h 6.326 v 3 h 5.9 v -3 h 6.326 v 3 h 5.9 v -3 h 6.326 v 3 h 5.9 v -3 h 6.325 v 3 h 5.9 v -3 h 6.326 v 3 h 5.9 v -3 h 6.326 v 3 h 5.9 v -3 h 6.326 v 3 h 5.9 v -3 h 6.326 v 3 h 5.9 v -3 h 6.326 v 3 h 5.9 v -3 h 6.276"
         id="path4098" />
      <path
         style="fill:none;stroke:#000000;stroke-width:1"
         d="m 432.2,108.1 v 6.506 h -3 v 5.9 h 3 v 6.555 h -3 v 5.9 h 3 v 6.556 h -3 v 5.9 h 3 v 6.555 h -3 v 5.9 h 3 v 6.556 h -3 v 5.9 h 3 v 6.555 h -3 v 5.9 h 3 v 6.556 h -3 v 5.9 h 3 v 6.555 h -3 v 5.9 h 3 v 6.506"
         id="path4100" />
      <path
         style="fill:none;stroke:#000000;stroke-width:1"
         d="m 432.2,214.2 h -6.276 v -3 h -5.9 v 3 h -6.326 v -3 h -5.9 v 3 h -6.326 v -3 h -5.9 v 3 h -6.326 v -3 h -5.9 v 3 h -6.326 v -3 h -5.9 v 3 h -6.326 v -3 h -5.9 v 3 h -6.325 v -3 h -5.9 v 3 h -6.326 v -3 h -5.9 v 3 h -6.326 v -3 h -5.9 v 3 h -6.326 v -3 h -5.9 v 3 h -6.326 v -3 h -5.9 v 3 h -6.326 v -3 h -5.9 v 3 h -6.326 v -3 h -5.9 v 3 h -6.326 v -3 h -5.9 v 3 h -6.326 v -3 h -5.9 v 3 h -6.326 v -3 h -5.9 v 3 h -6.326 v -3 h -5.9 v 3 h -6.326 v -3 h -5.9 v 3 h -6.326 v -3 h -5.9 v 3 h -6.326 v -3 h -5.9 v 3 h -6.325 v -3 h -5.9 v 3 h -6.326 v -3 h -5.9 v 3 h -6.326 v -3 h -5.9 v 3 h -6.326 v -3 h -5.9 v 3 h -6.326 v -3 h -5.9 v 3 h -6.326 v -3 h -5.9 v 3 H 108.1"
         id="path4102" />
      <path
         style="fill:none;stroke:#000000;stroke-width:1"
         d="m 108.1,214.2 v -6.506 h 3 v -5.9 h -3 v -6.555 h 3 v -5.9 h -3 v -6.556 h 3 v -5.9 h -3 v -6.555 h 3 v -5.9 h -3 v -6.556 h 3 v -5.9 h -3 v -6.555 h 3 v -5.9 h -3 v -6.556 h 3 v -5.9 h -3 v -6.555 h 3 v -5.9 h -3 V 108.1"
         id="path4104" />
    </g>
    <g
       id="panel9045"
       transform="translate(3.5266425,-594.23927)">
      <path
         style="fill:none;stroke:#000000;stroke-width:1"
         d="m 436.2,111.1 h 3.406 v -3 h 6.1 v 3 h 6.355 v -3 h 6.1 v 3 h 6.356 v -3 h 6.1 v 3 h 6.355 v -3 h 6.1 v 3 h 6.356 v -3 h 6.1 v 3 h 6.355 v -3 h 6.1 v 3 h 6.356 v -3 h 6.1 v 3 h 6.355 v -3 h 6.1 v 3 h 3.406"
         id="path4107" />
      <path
         style="fill:none;stroke:#000000;stroke-width:1"
         d="m 536.3,111.1 v 3.406 0 6.1 0 6.355 0 6.1 0 6.356 0 6.1 0 6.355 0 6.1 0 6.356 0 6.1 0 6.355 0 6.1 0 6.356 0 6.1 0 6.355 0 6.1 0 3.406"
         id="path4109" />
      <path
         style="fill:none;stroke:#000000;stroke-width:1"
         d="m 536.3,211.2 h -3.406 v 3 h -6.1 v -3 h -6.355 v 3 h -6.1 v -3 h -6.356 v 3 h -6.1 v -3 h -6.355 v 3 h -6.1 v -3 h -6.356 v 3 h -6.1 v -3 h -6.355 v 3 h -6.1 v -3 h -6.356 v 3 h -6.1 v -3 h -6.355 v 3 h -6.1 v -3 H 436.2"
         id="path4111" />
      <path
         style="fill:none;stroke:#000000;stroke-width:1"
         d="m 436.2,211.2 v -3.406 h -3 v -6.1 h 3 v -6.355 h -3 v -6.1 h 3 v -6.356 h -3 v -6.1 h 3 v -6.355 h -3 v -6.1 h 3 v -6.356 h -3 v -6.1 h 3 v -6.355 h -3 v -6.1 h 3 v -6.356 h -3 v -6.1 h 3 v -6.355 h -3 v -6.1 h 3 V 111.1"
         id="path4113" />
    </g>
    <g
       id="panel2175"
       transform="translate(3.5266425,-594.23927)">
      <path
         style="fill:none;stroke:#000000;stroke-width:1"
         d="m 108.1,4 h 6.176 v 0 h 6.1 v 0 h 6.126 v 0 h 6.1 v 0 h 6.126 v 0 h 6.1 v 0 h 6.126 v 0 h 6.1 v 0 h 6.126 v 0 h 6.1 v 0 h 6.126 v 0 h 6.1 v 0 h 6.125 v 0 h 6.1 v 0 h 6.126 v 0 h 6.1 v 0 h 6.126 v 0 h 6.1 v 0 h 6.126 v 0 h 6.1 v 0 h 6.126 v 0 h 6.1 v 0 h 6.126 v 0 h 6.1 v 0 h 6.126 v 0 h 6.1 v 0 h 6.126 v 0 h 6.1 v 0 h 6.126 v 0 h 6.1 v 0 h 6.126 v 0 h 6.1 v 0 h 6.126 v 0 h 6.1 v 0 h 6.126 v 0 h 6.1 v 0 h 6.126 v 0 h 6.1 v 0 h 6.126 v 0 h 6.1 v 0 h 6.125 v 0 h 6.1 v 0 h 6.126 v 0 h 6.1 v 0 h 6.126 v 0 h 6.1 v 0 h 6.126 v 0 h 6.1 v 0 h 6.126 v 0 h 6.1 v 0 h 6.126 v 0 h 6.1 v 0 h 6.176"
         id="path4116" />
      <path
         style="fill:none;stroke:#000000;stroke-width:1"
         d="m 432.2,4 v 3.50556 h -3 v 5.90004 h 3 v 6.5555 h -3 v 5.9 h 3 v 6.5556 h -3 v 5.9 h 3 v 6.5555 h -3 v 5.9 h 3 v 6.5556 h -3 v 5.9 h 3 v 6.5555 h -3 v 5.9 h 3 v 6.5556 h -3 v 5.9 h 3 v 6.5555 h -3 v 5.8996 h 3 v 3.506"
         id="path4118" />
      <path
         style="fill:none;stroke:#000000;stroke-width:1"
         d="m 432.2,104.1 h -6.176 v 3 h -6.1 v -3 h -6.126 v 3 h -6.1 v -3 h -6.126 v 3 h -6.1 v -3 h -6.126 v 3 h -6.1 v -3 h -6.126 v 3 h -6.1 v -3 h -6.126 v 3 h -6.1 v -3 h -6.125 v 3 h -6.1 v -3 h -6.126 v 3 h -6.1 v -3 h -6.126 v 3 h -6.1 v -3 h -6.126 v 3 h -6.1 v -3 h -6.126 v 3 h -6.1 v -3 h -6.126 v 3 h -6.1 v -3 h -6.126 v 3 h -6.1 v -3 h -6.126 v 3 h -6.1 v -3 h -6.126 v 3 h -6.1 v -3 h -6.126 v 3 h -6.1 v -3 h -6.126 v 3 h -6.1 v -3 h -6.126 v 3 h -6.1 v -3 h -6.126 v 3 h -6.1 v -3 h -6.126 v 3 h -6.1 v -3 h -6.125 v 3 h -6.1 v -3 h -6.126 v 3 h -6.1 v -3 h -6.126 v 3 h -6.1 v -3 h -6.126 v 3 h -6.1 v -3 h -6.126 v 3 h -6.1 v -3 h -6.126 v 3 h -6.1 v -3 H 108.1"
         id="path4120" />
      <path
         style="fill:none;stroke:#000000;stroke-width:1"
         d="m 108.1,104.1 v -3.506 h 3 v -5.8996 h -3 v -6.5555 h 3 v -5.9 h -3 v -6.5556 h 3 v -5.9 h -3 v -6.5555 h 3 v -5.9 h -3 v -6.5556 h 3 v -5.9 h -3 v -6.5555 h 3 v -5.9 h -3 v -6.5556 h 3 v -5.9 h -3 v -6.5555 h 3 V 7.50556 h -3 V 4"
         id="path4122" />
    </g>
    <rect
       style="fill:none;fill-opacity:1;stroke:#000000;stroke-width:0.992672;stroke-miterlimit:4;stroke-dasharray:none;stroke-opacity:1"
       id="rect5613"
       width="89.007324"
       height="89.007324"
       x="1181.0535"
       y="273.83398" />
    <rect
       style="fill:none;fill-opacity:1;stroke:#000000;stroke-width:1;stroke-miterlimit:4;stroke-dasharray:none;stroke-opacity:1"
       id="rect5613-4"
       width="14.766183"
       height="29.766184"
       x="1165.5784"
       y="127.61471" />
    <rect
       style="fill:none;fill-opacity:1;stroke:#000000;stroke-width:1;stroke-miterlimit:4;stroke-dasharray:none;stroke-opacity:1"
       id="rect5613-4-4"
       width="14.766183"
       height="29.766184"
       x="1190.8772"
       y="127.61471" />
    <rect
       style="fill:none;fill-opacity:1;stroke:#000000;stroke-width:1;stroke-miterlimit:4;stroke-dasharray:none;stroke-opacity:1"
       id="rect5613-4-7"
       width="14.766183"
       height="29.766184"
       x="1125.5133"
       y="127.61471" />
    <rect
       style="fill:none;fill-opacity:1;stroke:#000000;stroke-width:1;stroke-miterlimit:4;stroke-dasharray:none;stroke-opacity:1"
       id="rect5613-4-7-6"
       width="9.3580122"
       height="19.358013"
       x="1188.384"
       y="286.43921" />
    <rect
       style="fill:none;fill-opacity:1;stroke:#000000;stroke-width:1;stroke-miterlimit:4;stroke-dasharray:none;stroke-opacity:1"
       id="rect5613-4-4-3"
       width="14.766183"
       height="29.766184"
       x="1150.8121"
       y="127.61471" />
    <g
       id="panel9377-9-0"
       transform="translate(1069.6216,-572.0305)"
       style="stroke:#000000;stroke-width:1;stroke-miterlimit:4;stroke-dasharray:none;stroke-opacity:1">
      <path
         style="fill:none;stroke:#000000;stroke-width:1;stroke-miterlimit:4;stroke-dasharray:none;stroke-opacity:1"
         d="m 108.1,218.2 h 6.406 v -3 h 6.1 v 3 h 6.355 v -3 h 6.1 v 3 h 6.356 v -3 h 6.1 v 3 h 6.355 v -3 h 6.1 v 3 h 6.356 v -3 h 6.1 v 3 h 6.355 v -3 h 6.1 v 3 h 6.356 v -3 h 6.1 v 3 h 6.355 v -3 h 6.1 v 3 h 6.406"
         id="path231-3-9" />
      <path
         style="fill:none;stroke:#000000;stroke-width:1;stroke-miterlimit:4;stroke-dasharray:none;stroke-opacity:1"
         d="m 214.2,218.2 v 3.506 h -3 v 5.9 h 3 v 6.555 h -3 v 5.9 h 3 v 6.556 h -3 v 5.9 h 3 v 6.555 h -3 v 5.9 h 3 v 6.556 h -3 v 5.9 h 3 v 6.555 h -3 v 5.9 h 3 v 6.556 h -3 v 5.9 h 3 v 6.555 h -3 v 5.9 h 3 v 3.506"
         id="path233-9-0" />
      <path
         style="fill:none;stroke:#000000;stroke-width:1;stroke-miterlimit:4;stroke-dasharray:none;stroke-opacity:1"
         d="m 214.2,318.3 h -6.406 v 0 h -6.1 v 0 h -6.355 v 0 h -6.1 v 0 h -6.356 v 0 h -6.1 v 0 h -6.355 v 0 h -6.1 v 0 h -6.356 v 0 h -6.1 v 0 h -6.355 v 0 h -6.1 v 0 h -6.356 v 0 h -6.1 v 0 h -6.355 v 0 h -6.1 v 0 H 108.1"
         id="path235-6-2" />
      <path
         style="fill:none;stroke:#000000;stroke-width:1;stroke-miterlimit:4;stroke-dasharray:none;stroke-opacity:1"
         d="m 108.1,318.3 v -3.506 h 3 v -5.9 h -3 v -6.555 h 3 v -5.9 h -3 v -6.556 h 3 v -5.9 h -3 v -6.555 h 3 v -5.9 h -3 v -6.556 h 3 v -5.9 h -3 v -6.555 h 3 v -5.9 h -3 v -6.556 h 3 v -5.9 h -3 v -6.555 h 3 v -5.9 h -3 V 218.2"
         id="path237-2-1" />
    </g>
    <g
       id="panel1714-7-0"
       transform="translate(582.94491,-326.04718)">
      <path
         style="fill:none;stroke:#000000;stroke-width:1"
         d="m 490.67667,-134.88332 h 3.40556 v -3 h 6.10004 v 3 h 6.3555 v -3 h 6.1 v 3 h 6.3556 v -3 h 6.1 v 3 h 6.3555 v -3 h 6.1 v 3 h 6.3556 v -3 h 6.1 v 3 h 6.3555 v -3 h 6.1 v 3 h 6.3556 v -3 h 6.1 v 3 h 6.3555 v -3 h 6.0996 v 3 h 3.406"
         id="path240-9-5" />
      <path
         style="fill:none;stroke:#000000;stroke-width:1"
         d="m 590.77667,-134.88332 v 3.406 h 3 v 6.1 h -3 v 6.355 h 3 v 6.1 h -3 v 6.356 h 3 v 6.1 h -3 v 6.355002 h 3 v 6.1 h -3 v 6.356 h 3 v 6.1 h -3 v 6.355 h 3 v 6.1 h -3 v 6.356 h 3 v 6.1 h -3 v 6.355 h 3 v 6.1 h -3 v 3.406"
         id="path242-5-8" />
      <path
         style="fill:none;stroke:#000000;stroke-width:1"
         d="m 590.77667,-34.783318 h -3.406 v 3 h -6.0996 v -3 h -6.3555 v 3 h -6.1 v -3 h -6.3556 v 3 h -6.1 v -3 h -6.3555 v 3 h -6.1 v -3 h -6.3556 v 3 h -6.1 v -3 h -6.3555 v 3 h -6.1 v -3 h -6.3556 v 3 h -6.1 v -3 h -6.3555 v 3 h -6.10004 v -3 h -3.40556"
         id="path244-1-1" />
      <path
         style="fill:none;stroke:#000000;stroke-width:1"
         d="m 490.67667,-34.783318 v -3.406 0 -6.1 0 -6.355 0 -6.1 0 -6.356 0 -6.1 0 -6.355 0 -6.1 0 -6.356 0 -6.1 0 -6.355002 0 -6.1 0 -6.356 0 -6.1 0 -6.355 0 -6.1 0 -3.406"
         id="path246-1-3" />
    </g>
    <g
       id="panel9362-96-2"
       transform="translate(1069.6216,-572.0305)">
      <path
         style="fill:none;stroke:#000000;stroke-width:1"
         d="m 108.1,108.1 h 6.506 v 3 h 5.9 v -3 h 6.555 v 3 h 5.9 v -3 h 6.556 v 3 h 5.9 v -3 h 6.555 v 3 h 5.9 v -3 h 6.556 v 3 h 5.9 v -3 h 6.555 v 3 h 5.9 v -3 h 6.556 v 3 h 5.9 v -3 h 6.555 v 3 h 5.9 v -3 h 6.506"
         id="path249-2-5" />
      <path
         style="fill:none;stroke:#000000;stroke-width:1"
         d="m 214.2,108.1 v 6.506 h -3 v 5.9 h 3 v 6.555 h -3 v 5.9 h 3 v 6.556 h -3 v 5.9 h 3 v 6.555 h -3 v 5.9 h 3 v 6.556 h -3 v 5.9 h 3 v 6.555 h -3 v 5.9 h 3 v 6.556 h -3 v 5.9 h 3 v 6.555 h -3 v 5.9 h 3 v 6.506"
         id="path251-6-7" />
      <path
         style="fill:none;stroke:#000000;stroke-width:1"
         d="m 214.2,214.2 h -6.506 v -3 h -5.9 v 3 h -6.555 v -3 h -5.9 v 3 h -6.556 v -3 h -5.9 v 3 h -6.555 v -3 h -5.9 v 3 h -6.556 v -3 h -5.9 v 3 h -6.555 v -3 h -5.9 v 3 h -6.556 v -3 h -5.9 v 3 h -6.555 v -3 h -5.9 v 3 H 108.1"
         id="path253-6-3" />
      <path
         style="fill:none;stroke:#000000;stroke-width:1"
         d="m 108.1,214.2 v -6.506 h 3 v -5.9 h -3 v -6.555 h 3 v -5.9 h -3 v -6.556 h 3 v -5.9 h -3 v -6.555 h 3 v -5.9 h -3 v -6.556 h 3 v -5.9 h -3 v -6.555 h 3 v -5.9 h -3 v -6.556 h 3 v -5.9 h -3 v -6.555 h 3 v -5.9 h -3 V 108.1"
         id="path255-7-8" />
    </g>
    <g
       id="panel6703-2-7"
       transform="translate(1069.6216,-572.0305)">
      <path
         style="fill:none;stroke:#000000;stroke-width:1"
         d="m 218.2,111.1 h 3.406 v -3 h 6.1 v 3 h 6.355 v -3 h 6.1 v 3 h 6.356 v -3 h 6.1 v 3 h 6.355 v -3 h 6.1 v 3 h 6.356 v -3 h 6.1 v 3 h 6.355 v -3 h 6.1 v 3 h 6.356 v -3 h 6.1 v 3 h 6.355 v -3 h 6.1 v 3 h 3.406"
         id="path258-6-7" />
      <path
         style="fill:none;stroke:#000000;stroke-width:1"
         d="m 318.3,111.1 v 3.406 0 6.1 0 6.355 0 6.1 0 6.356 0 6.1 0 6.355 0 6.1 0 6.356 0 6.1 0 6.355 0 6.1 0 6.356 0 6.1 0 6.355 0 6.1 0 3.406"
         id="path260-31-1" />
      <path
         style="fill:none;stroke:#000000;stroke-width:1"
         d="m 318.3,211.2 h -3.406 v 3 h -6.1 v -3 h -6.355 v 3 h -6.1 v -3 h -6.356 v 3 h -6.1 v -3 h -6.355 v 3 h -6.1 v -3 h -6.356 v 3 h -6.1 v -3 h -6.355 v 3 h -6.1 v -3 h -6.356 v 3 h -6.1 v -3 h -6.355 v 3 h -6.1 v -3 H 218.2"
         id="path262-5-3" />
      <path
         style="fill:none;stroke:#000000;stroke-width:1"
         d="m 218.2,211.2 v -3.406 h -3 v -6.1 h 3 v -6.355 h -3 v -6.1 h 3 v -6.356 h -3 v -6.1 h 3 v -6.355 h -3 v -6.1 h 3 v -6.356 h -3 v -6.1 h 3 v -6.355 h -3 v -6.1 h 3 v -6.356 h -3 v -6.1 h 3 v -6.355 h -3 v -6.1 h 3 V 111.1"
         id="path264-4-7" />
    </g>
    <g
       id="panel176-5-5"
       transform="translate(1069.6216,-572.0305)">
      <path
         style="fill:none;stroke:#000000;stroke-width:1"
         d="m 108.1,4 h 6.406 v 0 h 6.1 v 0 h 6.355 v 0 h 6.1 v 0 h 6.356 v 0 h 6.1 v 0 h 6.355 v 0 h 6.1 v 0 h 6.356 v 0 h 6.1 v 0 h 6.355 v 0 h 6.1 v 0 h 6.356 v 0 h 6.1 v 0 h 6.355 v 0 h 6.1 v 0 h 6.406"
         id="path267-23-9" />
      <path
         style="fill:none;stroke:#000000;stroke-width:1"
         d="m 214.2,4 v 3.50556 h -3 v 5.90004 h 3 v 6.5555 h -3 v 5.9 h 3 v 6.5556 h -3 v 5.9 h 3 v 6.5555 h -3 v 5.9 h 3 v 6.5556 h -3 v 5.9 h 3 v 6.5555 h -3 v 5.9 h 3 v 6.5556 h -3 v 5.9 h 3 v 6.5555 h -3 v 5.8996 h 3 v 3.506"
         id="path269-7-4" />
      <path
         style="fill:none;stroke:#000000;stroke-width:1"
         d="m 214.2,104.1 h -6.406 v 3 h -6.1 v -3 h -6.355 v 3 h -6.1 v -3 h -6.356 v 3 h -6.1 v -3 h -6.355 v 3 h -6.1 v -3 h -6.356 v 3 h -6.1 v -3 h -6.355 v 3 h -6.1 v -3 h -6.356 v 3 h -6.1 v -3 h -6.355 v 3 h -6.1 v -3 H 108.1"
         id="path271-2-0" />
      <path
         style="fill:none;stroke:#000000;stroke-width:1"
         d="m 108.1,104.1 v -3.506 h 3 v -5.8996 h -3 v -6.5555 h 3 v -5.9 h -3 v -6.5556 h 3 v -5.9 h -3 v -6.5555 h 3 v -5.9 h -3 v -6.5556 h 3 v -5.9 h -3 v -6.5555 h 3 v -5.9 h -3 v -6.5556 h 3 v -5.9 h -3 v -6.5555 h 3 V 7.50556 h -3 V 4"
         id="path273-1-0" />
    </g>
    <rect
       style="fill:none;fill-opacity:1;stroke:#000000;stroke-width:1;stroke-miterlimit:4;stroke-dasharray:none;stroke-opacity:1"
       id="rect5613-4-72"
       width="14.766183"
       height="29.766184"
       x="1230.5801"
       y="-338.00012" />
    <rect
       style="fill:none;fill-opacity:1;stroke:#000000;stroke-width:1;stroke-miterlimit:4;stroke-dasharray:none;stroke-opacity:1"
       id="rect5613-4-4-8"
       width="14.766183"
       height="29.766184"
       x="1255.8789"
       y="-338.00012" />
    <rect
       style="fill:none;fill-opacity:1;stroke:#000000;stroke-width:1;stroke-miterlimit:4;stroke-dasharray:none;stroke-opacity:1"
       id="rect5613-4-7-4"
       width="14.766183"
       height="29.766184"
       x="1190.515"
       y="-338.00012" />
    <rect
       style="fill:none;fill-opacity:1;stroke:#000000;stroke-width:1;stroke-miterlimit:4;stroke-dasharray:none;stroke-opacity:1"
       id="rect5613-4-4-3-3"
       width="14.766183"
       height="29.766184"
       x="1215.8138"
       y="-338.00012" />
    <g
       id="panel9377-9-7"
       transform="translate(632.31796,-593.19036)"
       style="stroke:#000000;stroke-width:1;stroke-miterlimit:4;stroke-dasharray:none;stroke-opacity:1">
      <path
         style="fill:none;stroke:#000000;stroke-width:1;stroke-miterlimit:4;stroke-dasharray:none;stroke-opacity:1"
         d="m 108.1,218.2 h 6.406 v -3 h 6.1 v 3 h 6.355 v -3 h 6.1 v 3 h 6.356 v -3 h 6.1 v 3 h 6.355 v -3 h 6.1 v 3 h 6.356 v -3 h 6.1 v 3 h 6.355 v -3 h 6.1 v 3 h 6.356 v -3 h 6.1 v 3 h 6.355 v -3 h 6.1 v 3 h 6.406"
         id="path231-3-3" />
      <path
         style="fill:none;stroke:#000000;stroke-width:1;stroke-miterlimit:4;stroke-dasharray:none;stroke-opacity:1"
         d="m 214.2,218.2 v 3.506 h -3 v 5.9 h 3 v 6.555 h -3 v 5.9 h 3 v 6.556 h -3 v 5.9 h 3 v 6.555 h -3 v 5.9 h 3 v 6.556 h -3 v 5.9 h 3 v 6.555 h -3 v 5.9 h 3 v 6.556 h -3 v 5.9 h 3 v 6.555 h -3 v 5.9 h 3 v 3.506"
         id="path233-9-04" />
      <path
         style="fill:none;stroke:#000000;stroke-width:1;stroke-miterlimit:4;stroke-dasharray:none;stroke-opacity:1"
         d="m 214.2,318.3 h -6.406 v 0 h -6.1 v 0 h -6.355 v 0 h -6.1 v 0 h -6.356 v 0 h -6.1 v 0 h -6.355 v 0 h -6.1 v 0 h -6.356 v 0 h -6.1 v 0 h -6.355 v 0 h -6.1 v 0 h -6.356 v 0 h -6.1 v 0 h -6.355 v 0 h -6.1 v 0 H 108.1"
         id="path235-6-4" />
      <path
         style="fill:none;stroke:#000000;stroke-width:1;stroke-miterlimit:4;stroke-dasharray:none;stroke-opacity:1"
         d="m 108.1,318.3 v -3.506 h 3 v -5.9 h -3 v -6.555 h 3 v -5.9 h -3 v -6.556 h 3 v -5.9 h -3 v -6.555 h 3 v -5.9 h -3 v -6.556 h 3 v -5.9 h -3 v -6.555 h 3 v -5.9 h -3 v -6.556 h 3 v -5.9 h -3 v -6.555 h 3 v -5.9 h -3 V 218.2"
         id="path237-2-7" />
    </g>
    <g
       id="panel1714-7-3"
       transform="translate(145.64124,-347.20704)">
      <path
         style="fill:none;stroke:#000000;stroke-width:1"
         d="m 490.67667,-134.88332 h 3.40556 v -3 h 6.10004 v 3 h 6.3555 v -3 h 6.1 v 3 h 6.3556 v -3 h 6.1 v 3 h 6.3555 v -3 h 6.1 v 3 h 6.3556 v -3 h 6.1 v 3 h 6.3555 v -3 h 6.1 v 3 h 6.3556 v -3 h 6.1 v 3 h 6.3555 v -3 h 6.0996 v 3 h 3.406"
         id="path240-9-3" />
      <path
         style="fill:none;stroke:#000000;stroke-width:1"
         d="m 590.77667,-134.88332 v 3.406 h 3 v 6.1 h -3 v 6.355 h 3 v 6.1 h -3 v 6.356 h 3 v 6.1 h -3 v 6.355002 h 3 v 6.1 h -3 v 6.356 h 3 v 6.1 h -3 v 6.355 h 3 v 6.1 h -3 v 6.356 h 3 v 6.1 h -3 v 6.355 h 3 v 6.1 h -3 v 3.406"
         id="path242-5-2" />
      <path
         style="fill:none;stroke:#000000;stroke-width:1"
         d="m 590.77667,-34.783318 h -3.406 v 3 h -6.0996 v -3 h -6.3555 v 3 h -6.1 v -3 h -6.3556 v 3 h -6.1 v -3 h -6.3555 v 3 h -6.1 v -3 h -6.3556 v 3 h -6.1 v -3 h -6.3555 v 3 h -6.1 v -3 h -6.3556 v 3 h -6.1 v -3 h -6.3555 v 3 h -6.10004 v -3 h -3.40556"
         id="path244-1-9" />
      <path
         style="fill:none;stroke:#000000;stroke-width:1"
         d="m 490.67667,-34.783318 v -3.406 0 -6.1 0 -6.355 0 -6.1 0 -6.356 0 -6.1 0 -6.355 0 -6.1 0 -6.356 0 -6.1 0 -6.355002 0 -6.1 0 -6.356 0 -6.1 0 -6.355 0 -6.1 0 -3.406"
         id="path246-1-30" />
    </g>
    <g
       id="panel9362-96-5"
       transform="translate(632.31796,-593.19036)">
      <path
         style="fill:none;stroke:#000000;stroke-width:1"
         d="m 108.1,108.1 h 6.506 v 3 h 5.9 v -3 h 6.555 v 3 h 5.9 v -3 h 6.556 v 3 h 5.9 v -3 h 6.555 v 3 h 5.9 v -3 h 6.556 v 3 h 5.9 v -3 h 6.555 v 3 h 5.9 v -3 h 6.556 v 3 h 5.9 v -3 h 6.555 v 3 h 5.9 v -3 h 6.506"
         id="path249-2-4" />
      <path
         style="fill:none;stroke:#000000;stroke-width:1"
         d="m 214.2,108.1 v 6.506 h -3 v 5.9 h 3 v 6.555 h -3 v 5.9 h 3 v 6.556 h -3 v 5.9 h 3 v 6.555 h -3 v 5.9 h 3 v 6.556 h -3 v 5.9 h 3 v 6.555 h -3 v 5.9 h 3 v 6.556 h -3 v 5.9 h 3 v 6.555 h -3 v 5.9 h 3 v 6.506"
         id="path251-6-1" />
      <path
         style="fill:none;stroke:#000000;stroke-width:1"
         d="m 214.2,214.2 h -6.506 v -3 h -5.9 v 3 h -6.555 v -3 h -5.9 v 3 h -6.556 v -3 h -5.9 v 3 h -6.555 v -3 h -5.9 v 3 h -6.556 v -3 h -5.9 v 3 h -6.555 v -3 h -5.9 v 3 h -6.556 v -3 h -5.9 v 3 h -6.555 v -3 h -5.9 v 3 H 108.1"
         id="path253-6-6" />
      <path
         style="fill:none;stroke:#000000;stroke-width:1"
         d="m 108.1,214.2 v -6.506 h 3 v -5.9 h -3 v -6.555 h 3 v -5.9 h -3 v -6.556 h 3 v -5.9 h -3 v -6.555 h 3 v -5.9 h -3 v -6.556 h 3 v -5.9 h -3 v -6.555 h 3 v -5.9 h -3 v -6.556 h 3 v -5.9 h -3 v -6.555 h 3 v -5.9 h -3 V 108.1"
         id="path255-7-0" />
    </g>
    <g
       id="panel6703-2-8"
       transform="translate(632.31796,-593.19036)">
      <path
         style="fill:none;stroke:#000000;stroke-width:1"
         d="m 218.2,111.1 h 3.406 v -3 h 6.1 v 3 h 6.355 v -3 h 6.1 v 3 h 6.356 v -3 h 6.1 v 3 h 6.355 v -3 h 6.1 v 3 h 6.356 v -3 h 6.1 v 3 h 6.355 v -3 h 6.1 v 3 h 6.356 v -3 h 6.1 v 3 h 6.355 v -3 h 6.1 v 3 h 3.406"
         id="path258-6-8" />
      <path
         style="fill:none;stroke:#000000;stroke-width:1"
         d="m 318.3,111.1 v 3.406 0 6.1 0 6.355 0 6.1 0 6.356 0 6.1 0 6.355 0 6.1 0 6.356 0 6.1 0 6.355 0 6.1 0 6.356 0 6.1 0 6.355 0 6.1 0 3.406"
         id="path260-31-3" />
      <path
         style="fill:none;stroke:#000000;stroke-width:1"
         d="m 318.3,211.2 h -3.406 v 3 h -6.1 v -3 h -6.355 v 3 h -6.1 v -3 h -6.356 v 3 h -6.1 v -3 h -6.355 v 3 h -6.1 v -3 h -6.356 v 3 h -6.1 v -3 h -6.355 v 3 h -6.1 v -3 h -6.356 v 3 h -6.1 v -3 h -6.355 v 3 h -6.1 v -3 H 218.2"
         id="path262-5-31" />
      <path
         style="fill:none;stroke:#000000;stroke-width:1"
         d="m 218.2,211.2 v -3.406 h -3 v -6.1 h 3 v -6.355 h -3 v -6.1 h 3 v -6.356 h -3 v -6.1 h 3 v -6.355 h -3 v -6.1 h 3 v -6.356 h -3 v -6.1 h 3 v -6.355 h -3 v -6.1 h 3 v -6.356 h -3 v -6.1 h 3 v -6.355 h -3 v -6.1 h 3 V 111.1"
         id="path264-4-8" />
    </g>
    <g
       id="panel176-5-6"
       transform="translate(632.31796,-593.19036)">
      <path
         style="fill:none;stroke:#000000;stroke-width:1"
         d="m 108.1,4 h 6.406 v 0 h 6.1 v 0 h 6.355 v 0 h 6.1 v 0 h 6.356 v 0 h 6.1 v 0 h 6.355 v 0 h 6.1 v 0 h 6.356 v 0 h 6.1 v 0 h 6.355 v 0 h 6.1 v 0 h 6.356 v 0 h 6.1 v 0 h 6.355 v 0 h 6.1 v 0 h 6.406"
         id="path267-23-92" />
      <path
         style="fill:none;stroke:#000000;stroke-width:1"
         d="m 214.2,4 v 3.50556 h -3 v 5.90004 h 3 v 6.5555 h -3 v 5.9 h 3 v 6.5556 h -3 v 5.9 h 3 v 6.5555 h -3 v 5.9 h 3 v 6.5556 h -3 v 5.9 h 3 v 6.5555 h -3 v 5.9 h 3 v 6.5556 h -3 v 5.9 h 3 v 6.5555 h -3 v 5.8996 h 3 v 3.506"
         id="path269-7-7" />
      <path
         style="fill:none;stroke:#000000;stroke-width:1"
         d="m 214.2,104.1 h -6.406 v 3 h -6.1 v -3 h -6.355 v 3 h -6.1 v -3 h -6.356 v 3 h -6.1 v -3 h -6.355 v 3 h -6.1 v -3 h -6.356 v 3 h -6.1 v -3 h -6.355 v 3 h -6.1 v -3 h -6.356 v 3 h -6.1 v -3 h -6.355 v 3 h -6.1 v -3 H 108.1"
         id="path271-2-2" />
      <path
         style="fill:none;stroke:#000000;stroke-width:1"
         d="m 108.1,104.1 v -3.506 h 3 v -5.8996 h -3 v -6.5555 h 3 v -5.9 h -3 v -6.5556 h 3 v -5.9 h -3 v -6.5555 h 3 v -5.9 h -3 v -6.5556 h 3 v -5.9 h -3 v -6.5555 h 3 v -5.9 h -3 v -6.5556 h 3 v -5.9 h -3 v -6.5555 h 3 V 7.50556 h -3 V 4"
         id="path273-1-09" />
    </g>
    <rect
       style="fill:none;fill-opacity:1;stroke:#000000;stroke-width:1;stroke-miterlimit:4;stroke-dasharray:none;stroke-opacity:1"
       id="rect5613-4-44"
       width="14.766183"
       height="29.766184"
       x="793.27643"
       y="-359.16" />
    <rect
       style="fill:none;fill-opacity:1;stroke:#000000;stroke-width:1;stroke-miterlimit:4;stroke-dasharray:none;stroke-opacity:1"
       id="rect5613-4-4-5"
       width="14.766183"
       height="29.766184"
       x="818.57526"
       y="-359.16" />
    <rect
       style="fill:none;fill-opacity:1;stroke:#000000;stroke-width:1;stroke-miterlimit:4;stroke-dasharray:none;stroke-opacity:1"
       id="rect5613-4-7-3"
       width="14.766183"
       height="29.766184"
       x="753.21136"
       y="-359.16" />
    <rect
       style="fill:none;fill-opacity:1;stroke:#000000;stroke-width:1;stroke-miterlimit:4;stroke-dasharray:none;stroke-opacity:1"
       id="rect5613-4-4-3-0"
       width="14.766183"
       height="29.766184"
       x="778.51019"
       y="-359.16" />
    <rect
       style="fill:none;fill-opacity:1;stroke:#000000;stroke-width:1;stroke-miterlimit:4;stroke-dasharray:none;stroke-opacity:1"
       id="rect5613-4-7-6-3"
       width="9.3580122"
       height="19.358013"
       x="1205.5126"
       y="286.43921" />
    <rect
       style="fill:none;fill-opacity:1;stroke:#000000;stroke-width:1;stroke-miterlimit:4;stroke-dasharray:none;stroke-opacity:1"
       id="rect5613-4-7-6-1"
       width="9.3580122"
       height="19.358013"
       x="1236.8301"
       y="286.88004" />
    <rect
       style="fill:none;fill-opacity:1;stroke:#000000;stroke-width:1;stroke-miterlimit:4;stroke-dasharray:none;stroke-opacity:1"
       id="rect5613-4-7-6-3-1"
       width="9.3580122"
       height="19.358013"
       x="1253.9586"
       y="286.88004" />
    <rect
       style="fill:none;fill-opacity:1;stroke:#000000;stroke-width:1;stroke-miterlimit:4;stroke-dasharray:none;stroke-opacity:1"
       id="rect5613-4-7-6-31"
       width="9.3580122"
       height="19.358013"
       x="1212.3267"
       y="335.02365" />
    <rect
       style="fill:none;fill-opacity:1;stroke:#000000;stroke-width:1;stroke-miterlimit:4;stroke-dasharray:none;stroke-opacity:1"
       id="rect5613-4-7-6-3-3"
       width="9.3580122"
       height="19.358013"
       x="1229.4552"
       y="335.02365" />
    <rect
       style="fill:none;fill-opacity:1;stroke:#000000;stroke-width:0.992672;stroke-miterlimit:4;stroke-dasharray:none;stroke-opacity:1"
       id="rect5613-2"
       width="89.007324"
       height="89.007324"
       x="1292.9489"
       y="243.33189" />
    <rect
       style="fill:none;fill-opacity:1;stroke:#000000;stroke-width:1;stroke-miterlimit:4;stroke-dasharray:none;stroke-opacity:1"
       id="rect5613-4-7-6-2"
       width="9.3580122"
       height="19.358013"
       x="1300.2794"
       y="255.93712" />
    <rect
       style="fill:none;fill-opacity:1;stroke:#000000;stroke-width:1;stroke-miterlimit:4;stroke-dasharray:none;stroke-opacity:1"
       id="rect5613-4-7-6-3-8"
       width="9.3580122"
       height="19.358013"
       x="1317.408"
       y="255.93712" />
    <rect
       style="fill:none;fill-opacity:1;stroke:#000000;stroke-width:1;stroke-miterlimit:4;stroke-dasharray:none;stroke-opacity:1"
       id="rect5613-4-7-6-1-9"
       width="9.3580122"
       height="19.358013"
       x="1348.7255"
       y="256.37796" />
    <rect
       style="fill:none;fill-opacity:1;stroke:#000000;stroke-width:1;stroke-miterlimit:4;stroke-dasharray:none;stroke-opacity:1"
       id="rect5613-4-7-6-3-1-8"
       width="9.3580122"
       height="19.358013"
       x="1365.854"
       y="256.37796" />
    <rect
       style="fill:none;fill-opacity:1;stroke:#000000;stroke-width:1;stroke-miterlimit:4;stroke-dasharray:none;stroke-opacity:1"
       id="rect5613-4-7-6-31-5"
       width="9.3580122"
       height="19.358013"
       x="1324.222"
       y="304.52158" />
    <rect
       style="fill:none;fill-opacity:1;stroke:#000000;stroke-width:1;stroke-miterlimit:4;stroke-dasharray:none;stroke-opacity:1"
       id="rect5613-4-7-6-3-3-0"
       width="9.3580122"
       height="19.358013"
       x="1341.3506"
       y="304.52158" />
    <rect
       style="fill:none;fill-opacity:1;stroke:#000000;stroke-width:0.992672;stroke-miterlimit:4;stroke-dasharray:none;stroke-opacity:1"
       id="rect5613-9"
       width="89.007324"
       height="89.007324"
       x="1281.0465"
       y="342.07788" />
    <rect
       style="fill:none;fill-opacity:1;stroke:#000000;stroke-width:1;stroke-miterlimit:4;stroke-dasharray:none;stroke-opacity:1"
       id="rect5613-4-7-6-34"
       width="9.3580122"
       height="19.358013"
       x="1288.3771"
       y="354.68311" />
    <rect
       style="fill:none;fill-opacity:1;stroke:#000000;stroke-width:1;stroke-miterlimit:4;stroke-dasharray:none;stroke-opacity:1"
       id="rect5613-4-7-6-3-9"
       width="9.3580122"
       height="19.358013"
       x="1305.5056"
       y="354.68311" />
    <rect
       style="fill:none;fill-opacity:1;stroke:#000000;stroke-width:1;stroke-miterlimit:4;stroke-dasharray:none;stroke-opacity:1"
       id="rect5613-4-7-6-1-4"
       width="9.3580122"
       height="19.358013"
       x="1336.8231"
       y="355.12393" />
    <rect
       style="fill:none;fill-opacity:1;stroke:#000000;stroke-width:1;stroke-miterlimit:4;stroke-dasharray:none;stroke-opacity:1"
       id="rect5613-4-7-6-3-1-3"
       width="9.3580122"
       height="19.358013"
       x="1353.9517"
       y="355.12393" />
    <rect
       style="fill:none;fill-opacity:1;stroke:#000000;stroke-width:1;stroke-miterlimit:4;stroke-dasharray:none;stroke-opacity:1"
       id="rect5613-4-7-6-31-7"
       width="9.3580122"
       height="19.358013"
       x="1312.3197"
       y="403.26755" />
    <rect
       style="fill:none;fill-opacity:1;stroke:#000000;stroke-width:1;stroke-miterlimit:4;stroke-dasharray:none;stroke-opacity:1"
       id="rect5613-4-7-6-3-3-1"
       width="9.3580122"
       height="19.358013"
       x="1329.4482"
       y="403.26755" />
    <g
       id="panel467"
       transform="translate(5.2899638,186.91206)">
      <path
         style="fill:none;stroke:#000000;stroke-width:1"
         d="m 158.1,318.2 h 6.419 v -3 h 6.1 v 3 h 6.369 v -3 h 6.1 v 3 h 6.37 v -3 h 6.1 v 3 h 6.369 v -3 h 6.1 v 3 h 6.369 v -3 h 6.1 v 3 h 6.369 v -3 h 6.1 v 3 h 6.37 v -3 h 6.1 v 3 h 6.369 v -3 h 6.1 v 3 h 6.369 v -3 h 6.1 v 3 h 6.369 v -3 h 6.1 v 3 h 6.37 v -3 h 6.1 v 3 h 6.369 v -3 h 6.1 v 3 h 6.419"
         id="path10769" />
      <path
         style="fill:none;stroke:#000000;stroke-width:1"
         d="m 314.2,318.2 v 3.519 h -3 v 5.9 h 3 v 6.569 h -3 v 5.9 h 3 v 6.57 h -3 v 5.9 h 3 v 6.569 h -3 v 5.9 h 3 v 6.569 h -3 v 5.9 h 3 v 6.569 h -3 v 5.9 h 3 v 6.57 h -3 v 5.9 h 3 v 6.569 h -3 v 5.9 h 3 v 6.569 h -3 v 5.9 h 3 v 6.569 h -3 v 5.9 h 3 v 6.57 h -3 v 5.9 h 3 v 6.569 h -3 v 5.9 h 3 v 3.519"
         id="path10771" />
      <path
         style="fill:none;stroke:#000000;stroke-width:1"
         d="m 314.2,468.3 h -6.419 v 3 h -6.1 v -3 h -6.369 v 3 h -6.1 v -3 h -6.37 v 3 h -6.1 v -3 h -6.369 v 3 h -6.1 v -3 h -6.369 v 3 h -6.1 v -3 h -6.369 v 3 h -6.1 v -3 h -6.37 v 3 h -6.1 v -3 h -6.369 v 3 h -6.1 v -3 h -6.369 v 3 h -6.1 v -3 h -6.369 v 3 h -6.1 v -3 h -6.37 v 3 h -6.1 v -3 h -6.369 v 3 h -6.1 v -3 H 158.1"
         id="path10773" />
      <path
         style="fill:none;stroke:#000000;stroke-width:1"
         d="m 158.1,468.3 v -3.519 h 3 v -5.9 h -3 v -6.569 h 3 v -5.9 h -3 v -6.57 h 3 v -5.9 h -3 v -6.569 h 3 v -5.9 h -3 v -6.569 h 3 v -5.9 h -3 v -6.569 h 3 v -5.9 h -3 v -6.57 h 3 v -5.9 h -3 v -6.569 h 3 v -5.9 h -3 v -6.569 h 3 v -5.9 h -3 v -6.569 h 3 v -5.9 h -3 v -6.57 h 3 v -5.9 h -3 v -6.569 h 3 v -5.9 h -3 V 318.2"
         id="path10775" />
    </g>
    <g
       id="panel8166"
       transform="translate(5.2899638,186.91206)">
      <path
         style="fill:none;stroke:#000000;stroke-width:1"
         d="m 4,161.1 h 3.41923 v -3 h 6.09997 v 3 h 6.3693 v -3 h 6.1 v 3 h 6.3692 v -3 h 6.1 v 3 h 6.3692 v -3 h 6.1 v 3 h 6.3693 v -3 h 6.1 v 3 h 6.3692 v -3 h 6.1 v 3 h 6.3692 v -3 h 6.1 v 3 h 6.3692 v -3 h 6.1002 v 3 h 6.369 v -3 h 6.1 v 3 h 6.369 v -3 h 6.1 v 3 h 6.37 v -3 h 6.1 v 3 h 6.369 v -3 h 6.1 v 3 h 3.419"
         id="path10778" />
      <path
         style="fill:none;stroke:#000000;stroke-width:1"
         d="m 154.1,161.1 v 3.419 h 3 v 6.1 h -3 v 6.369 h 3 v 6.1 h -3 v 6.37 h 3 v 6.1 h -3 v 6.369 h 3 v 6.1 h -3 v 6.369 h 3 v 6.1 h -3 v 6.369 h 3 v 6.1 h -3 v 6.37 h 3 v 6.1 h -3 v 6.369 h 3 v 6.1 h -3 v 6.369 h 3 v 6.1 h -3 v 6.369 h 3 v 6.1 h -3 v 6.37 h 3 v 6.1 h -3 v 6.369 h 3 v 6.1 h -3 v 3.419"
         id="path10780" />
      <path
         style="fill:none;stroke:#000000;stroke-width:1"
         d="m 154.1,311.2 h -3.419 v 3 h -6.1 v -3 h -6.369 v 3 h -6.1 v -3 h -6.37 v 3 h -6.1 v -3 h -6.369 v 3 h -6.1 v -3 h -6.369 v 3 h -6.1002 v -3 h -6.3692 v 3 h -6.1 v -3 h -6.3692 v 3 h -6.1 v -3 h -6.3692 v 3 h -6.1 v -3 h -6.3693 v 3 h -6.1 v -3 h -6.3692 v 3 h -6.1 v -3 h -6.3692 v 3 h -6.1 v -3 h -6.3693 v 3 H 7.41923 v -3 H 4"
         id="path10782" />
      <path
         style="fill:none;stroke:#000000;stroke-width:1"
         d="m 4,311.2 v -3.419 H 1 v -6.1 h 3 v -6.369 H 1 v -6.1 h 3 v -6.37 H 1 v -6.1 h 3 v -6.369 H 1 v -6.1 h 3 v -6.369 H 1 v -6.1 h 3 v -6.369 H 1 v -6.1 h 3 v -6.37 H 1 v -6.1 h 3 v -6.369 H 1 v -6.1 h 3 v -6.369 H 1 v -6.1 h 3 v -6.369 H 1 v -6.1 h 3 v -6.37 H 1 v -6.1 h 3 v -6.369 H 1 v -6.1 H 4 V 161.1"
         id="path10784" />
    </g>
    <g
       id="panel7367"
       transform="translate(5.2899638,186.91206)">
      <path
         style="fill:none;stroke:#000000;stroke-width:1"
         d="m 158.1,158.1 h 6.519 v 3 h 5.9 v -3 h 6.569 v 3 h 5.9 v -3 h 6.57 v 3 h 5.9 v -3 h 6.569 v 3 h 5.9 v -3 h 6.569 v 3 h 5.9 v -3 h 6.569 v 3 h 5.9 v -3 h 6.57 v 3 h 5.9 v -3 h 6.569 v 3 h 5.9 v -3 h 6.569 v 3 h 5.9 v -3 h 6.569 v 3 h 5.9 v -3 h 6.57 v 3 h 5.9 v -3 h 6.569 v 3 h 5.9 v -3 h 6.519"
         id="path10787" />
      <path
         style="fill:none;stroke:#000000;stroke-width:1"
         d="m 314.2,158.1 v 6.519 h -3 v 5.9 h 3 v 6.569 h -3 v 5.9 h 3 v 6.57 h -3 v 5.9 h 3 v 6.569 h -3 v 5.9 h 3 v 6.569 h -3 v 5.9 h 3 v 6.569 h -3 v 5.9 h 3 v 6.57 h -3 v 5.9 h 3 v 6.569 h -3 v 5.9 h 3 v 6.569 h -3 v 5.9 h 3 v 6.569 h -3 v 5.9 h 3 v 6.57 h -3 v 5.9 h 3 v 6.569 h -3 v 5.9 h 3 v 6.519"
         id="path10789" />
      <path
         style="fill:none;stroke:#000000;stroke-width:1"
         d="m 314.2,314.2 h -6.519 v -3 h -5.9 v 3 h -6.569 v -3 h -5.9 v 3 h -6.57 v -3 h -5.9 v 3 h -6.569 v -3 h -5.9 v 3 h -6.569 v -3 h -5.9 v 3 h -6.569 v -3 h -5.9 v 3 h -6.57 v -3 h -5.9 v 3 h -6.569 v -3 h -5.9 v 3 h -6.569 v -3 h -5.9 v 3 h -6.569 v -3 h -5.9 v 3 h -6.57 v -3 h -5.9 v 3 h -6.569 v -3 h -5.9 v 3 H 158.1"
         id="path10791" />
      <path
         style="fill:none;stroke:#000000;stroke-width:1"
         d="m 158.1,314.2 v -6.519 h 3 v -5.9 h -3 v -6.569 h 3 v -5.9 h -3 v -6.57 h 3 v -5.9 h -3 v -6.569 h 3 v -5.9 h -3 v -6.569 h 3 v -5.9 h -3 v -6.569 h 3 v -5.9 h -3 v -6.57 h 3 v -5.9 h -3 v -6.569 h 3 v -5.9 h -3 v -6.569 h 3 v -5.9 h -3 v -6.569 h 3 v -5.9 h -3 v -6.57 h 3 v -5.9 h -3 v -6.569 h 3 v -5.9 h -3 V 158.1"
         id="path10793" />
    </g>
    <g
       id="panel7160"
       transform="translate(5.2899638,186.91206)">
      <path
         style="fill:none;stroke:#000000;stroke-width:1"
         d="m 318.2,161.1 h 3.419 v -3 h 6.1 v 3 h 6.369 v -3 h 6.1 v 3 h 6.37 v -3 h 6.1 v 3 h 6.369 v -3 h 6.1 v 3 h 6.369 v -3 h 6.1 v 3 h 6.369 v -3 h 6.1 v 3 h 6.37 v -3 h 6.1 v 3 h 6.369 v -3 h 6.1 v 3 h 6.369 v -3 h 6.1 v 3 h 6.369 v -3 h 6.1 v 3 h 6.37 v -3 h 6.1 v 3 h 6.369 v -3 h 6.1 v 3 h 3.419"
         id="path10796" />
      <path
         style="fill:none;stroke:#000000;stroke-width:1"
         d="m 468.3,161.1 v 3.419 h 3 v 6.1 h -3 v 6.369 h 3 v 6.1 h -3 v 6.37 h 3 v 6.1 h -3 v 6.369 h 3 v 6.1 h -3 v 6.369 h 3 v 6.1 h -3 v 6.369 h 3 v 6.1 h -3 v 6.37 h 3 v 6.1 h -3 v 6.369 h 3 v 6.1 h -3 v 6.369 h 3 v 6.1 h -3 v 6.369 h 3 v 6.1 h -3 v 6.37 h 3 v 6.1 h -3 v 6.369 h 3 v 6.1 h -3 v 3.419"
         id="path10798" />
      <path
         style="fill:none;stroke:#000000;stroke-width:1"
         d="m 468.3,311.2 h -3.419 v 3 h -6.1 v -3 h -6.369 v 3 h -6.1 v -3 h -6.37 v 3 h -6.1 v -3 h -6.369 v 3 h -6.1 v -3 h -6.369 v 3 h -6.1 v -3 h -6.369 v 3 h -6.1 v -3 h -6.37 v 3 h -6.1 v -3 h -6.369 v 3 h -6.1 v -3 h -6.369 v 3 h -6.1 v -3 h -6.369 v 3 h -6.1 v -3 h -6.37 v 3 h -6.1 v -3 h -6.369 v 3 h -6.1 v -3 H 318.2"
         id="path10800" />
      <path
         style="fill:none;stroke:#000000;stroke-width:1"
         d="m 318.2,311.2 v -3.419 h -3 v -6.1 h 3 v -6.369 h -3 v -6.1 h 3 v -6.37 h -3 v -6.1 h 3 v -6.369 h -3 v -6.1 h 3 v -6.369 h -3 v -6.1 h 3 v -6.369 h -3 v -6.1 h 3 v -6.37 h -3 v -6.1 h 3 v -6.369 h -3 v -6.1 h 3 v -6.369 h -3 v -6.1 h 3 v -6.369 h -3 v -6.1 h 3 v -6.37 h -3 v -6.1 h 3 v -6.369 h -3 v -6.1 h 3 V 161.1"
         id="path10802" />
    </g>
    <g
       id="panel8524"
       transform="translate(5.2899638,186.91206)">
      <path
         style="fill:none;stroke:#000000;stroke-width:1"
         d="m 472.3,158.1 h 6.519 v 3 h 5.9 v -3 h 6.569 v 3 h 5.9 v -3 h 6.57 v 3 h 5.9 v -3 h 6.569 v 3 h 5.9 v -3 h 6.569 v 3 h 5.9 v -3 h 6.569 v 3 h 5.9 v -3 h 6.57 v 3 h 5.9 v -3 h 6.569 v 3 h 5.9 v -3 h 6.569 v 3 h 5.9 v -3 h 6.569 v 3 h 5.9 v -3 h 6.57 v 3 h 5.9 v -3 h 6.569 v 3 h 5.9 v -3 h 6.519"
         id="path10805" />
      <path
         style="fill:none;stroke:#000000;stroke-width:1"
         d="m 628.4,158.1 v 6.519 h -3 v 5.9 h 3 v 6.569 h -3 v 5.9 h 3 v 6.57 h -3 v 5.9 h 3 v 6.569 h -3 v 5.9 h 3 v 6.569 h -3 v 5.9 h 3 v 6.569 h -3 v 5.9 h 3 v 6.57 h -3 v 5.9 h 3 v 6.569 h -3 v 5.9 h 3 v 6.569 h -3 v 5.9 h 3 v 6.569 h -3 v 5.9 h 3 v 6.57 h -3 v 5.9 h 3 v 6.569 h -3 v 5.9 h 3 v 6.519"
         id="path10807" />
      <path
         style="fill:none;stroke:#000000;stroke-width:1"
         d="m 628.4,314.2 h -6.519 v -3 h -5.9 v 3 h -6.569 v -3 h -5.9 v 3 h -6.57 v -3 h -5.9 v 3 h -6.569 v -3 h -5.9 v 3 h -6.569 v -3 h -5.9 v 3 h -6.569 v -3 h -5.9 v 3 h -6.57 v -3 h -5.9 v 3 h -6.569 v -3 h -5.9 v 3 h -6.569 v -3 h -5.9 v 3 h -6.569 v -3 h -5.9 v 3 h -6.57 v -3 h -5.9 v 3 h -6.569 v -3 h -5.9 v 3 H 472.3"
         id="path10809" />
      <path
         style="fill:none;stroke:#000000;stroke-width:1"
         d="m 472.3,314.2 v -6.519 h 3 v -5.9 h -3 v -6.569 h 3 v -5.9 h -3 v -6.57 h 3 v -5.9 h -3 v -6.569 h 3 v -5.9 h -3 v -6.569 h 3 v -5.9 h -3 v -6.569 h 3 v -5.9 h -3 v -6.57 h 3 v -5.9 h -3 v -6.569 h 3 v -5.9 h -3 v -6.569 h 3 v -5.9 h -3 v -6.569 h 3 v -5.9 h -3 v -6.57 h 3 v -5.9 h -3 v -6.569 h 3 v -5.9 h -3 V 158.1"
         id="path10811" />
    </g>
    <g
       id="panel1252"
       transform="translate(5.2899638,186.91206)">
      <path
         style="fill:none;stroke:#000000;stroke-width:1"
         d="m 158.1,4 h 6.419 V 1 h 6.1 v 3 h 6.369 V 1 h 6.1 v 3 h 6.37 V 1 h 6.1 v 3 h 6.369 V 1 h 6.1 v 3 h 6.369 V 1 h 6.1 v 3 h 6.369 V 1 h 6.1 v 3 h 6.37 V 1 h 6.1 v 3 h 6.369 V 1 h 6.1 v 3 h 6.369 V 1 h 6.1 v 3 h 6.369 V 1 h 6.1 v 3 h 6.37 V 1 h 6.1 v 3 h 6.369 V 1 h 6.1 v 3 h 6.419"
         id="path10814" />
      <path
         style="fill:none;stroke:#000000;stroke-width:1"
         d="m 314.2,4 v 3.51923 h -3 v 5.89997 h 3 v 6.5693 h -3 v 5.9 h 3 v 6.5692 h -3 v 5.9 h 3 v 6.5692 h -3 v 5.9 h 3 v 6.5693 h -3 v 5.9 h 3 v 6.5692 h -3 v 5.9 h 3 v 6.5692 h -3 v 5.9 h 3 v 6.5692 h -3 v 5.9002 h 3 v 6.569 h -3 v 5.9 h 3 v 6.569 h -3 v 5.9 h 3 v 6.57 h -3 v 5.9 h 3 v 6.569 h -3 v 5.9 h 3 v 3.519"
         id="path10816" />
      <path
         style="fill:none;stroke:#000000;stroke-width:1"
         d="m 314.2,154.1 h -6.419 v 3 h -6.1 v -3 h -6.369 v 3 h -6.1 v -3 h -6.37 v 3 h -6.1 v -3 h -6.369 v 3 h -6.1 v -3 h -6.369 v 3 h -6.1 v -3 h -6.369 v 3 h -6.1 v -3 h -6.37 v 3 h -6.1 v -3 h -6.369 v 3 h -6.1 v -3 h -6.369 v 3 h -6.1 v -3 h -6.369 v 3 h -6.1 v -3 h -6.37 v 3 h -6.1 v -3 h -6.369 v 3 h -6.1 v -3 H 158.1"
         id="path10818" />
      <path
         style="fill:none;stroke:#000000;stroke-width:1"
         d="m 158.1,154.1 v -3.519 h 3 v -5.9 h -3 v -6.569 h 3 v -5.9 h -3 v -6.57 h 3 v -5.9 h -3 v -6.569 h 3 v -5.9 h -3 v -6.569 h 3 v -5.9002 h -3 v -6.5692 h 3 v -5.9 h -3 v -6.5692 h 3 v -5.9 h -3 v -6.5692 h 3 v -5.9 h -3 v -6.5693 h 3 v -5.9 h -3 v -6.5692 h 3 v -5.9 h -3 v -6.5692 h 3 v -5.9 h -3 v -6.5693 h 3 V 7.51923 h -3 V 4"
         id="path10820" />
    </g>
    <rect
       style="fill:none;fill-opacity:1;stroke:#000000;stroke-width:1;stroke-miterlimit:4;stroke-dasharray:none;stroke-opacity:1"
       id="rect5613-4-7-6-3-3-8"
       width="30.600185"
       height="11.600184"
       x="496.65109"
       y="470.00015" />
    <rect
       style="fill:none;fill-opacity:1;stroke:#000000;stroke-width:1.23324;stroke-miterlimit:4;stroke-dasharray:none;stroke-opacity:1"
       id="rect5613-4-7-6-3-3-8-2"
       width="28.766764"
       height="18.766766"
       x="497.0347"
       y="376.04892" />
    <rect
       style="fill:none;fill-opacity:1;stroke:#000000;stroke-width:1.641;stroke-miterlimit:4;stroke-dasharray:none;stroke-opacity:1"
       id="rect5613-4-7-6-3-3-4"
       width="58.359001"
       height="8.3590012"
       x="549.29779"
       y="449.07837" />
    <g
       id="panel6338">
      <path
         style="fill:none;stroke:#000000;stroke-width:1"
         d="M 4 4 L 6.95385 4 L 6.95385 4 L 13.0538 4 L 13.0538 4 L 18.9577 4 L 18.9577 4 L 25.0577 4 L 25.0577 4 L 30.9615 4 L 30.9615 4 L 37.0615 4 L 37.0615 4 L 42.9654 4 L 42.9654 4 L 49.0654 4 L 49.0654 4 L 54.9692 4 L 54.9692 4 L 61.0692 4 L 61.0692 4 L 66.9731 4 L 66.9731 4 L 73.0731 4 L 73.0731 4 L 78.9769 4 L 78.9769 4 L 85.0769 4 L 85.0769 4 L 90.9808 4 L 90.9808 4 L 97.0808 4 L 97.0808 4 L 102.985 4 L 102.985 4 L 109.085 4 L 109.085 4 L 114.988 4 L 114.988 4 L 121.088 4 L 121.088 4 L 126.992 4 L 126.992 4 L 133.092 4 L 133.092 4 L 138.996 4 L 138.996 4 L 145.096 4 L 145.096 4 L 151 4 L 151 4 L 157.1 4 L 157.1 4 L 163.004 4 L 163.004 4 L 169.104 4 L 169.104 4 L 175.008 4 L 175.008 4 L 181.108 4 L 181.108 4 L 187.012 4 L 187.012 4 L 193.112 4 L 193.112 4 L 199.015 4 L 199.015 4 L 205.115 4 L 205.115 4 L 211.019 4 L 211.019 4 L 217.119 4 L 217.119 4 L 223.023 4 L 223.023 4 L 229.123 4 L 229.123 4 L 235.027 4 L 235.027 4 L 241.127 4 L 241.127 4 L 247.031 4 L 247.031 4 L 253.131 4 L 253.131 4 L 259.035 4 L 259.035 4 L 265.135 4 L 265.135 4 L 271.038 4 L 271.038 4 L 277.138 4 L 277.138 4 L 283.042 4 L 283.042 4 L 289.142 4 L 289.142 4 L 295.046 4 L 295.046 4 L 301.146 4 L 301.146 4 L 304.1 4"
         id="path12941" />
      <path
         style="fill:none;stroke:#000000;stroke-width:1"
         d="M 304.1 4 L 304.1 7.40556 L 307.1 7.40556 L 307.1 13.5056 L 304.1 13.5056 L 304.1 19.8611 L 307.1 19.8611 L 307.1 25.9611 L 304.1 25.9611 L 304.1 32.3167 L 307.1 32.3167 L 307.1 38.4167 L 304.1 38.4167 L 304.1 44.7722 L 307.1 44.7722 L 307.1 50.8722 L 304.1 50.8722 L 304.1 57.2278 L 307.1 57.2278 L 307.1 63.3278 L 304.1 63.3278 L 304.1 69.6833 L 307.1 69.6833 L 307.1 75.7833 L 304.1 75.7833 L 304.1 82.1389 L 307.1 82.1389 L 307.1 88.2389 L 304.1 88.2389 L 304.1 94.5944 L 307.1 94.5944 L 307.1 100.694 L 304.1 100.694 L 304.1 104.1"
         id="path12943" />
      <path
         style="fill:none;stroke:#000000;stroke-width:1"
         d="M 304.1 104.1 L 301.146 104.1 L 301.146 104.1 L 295.046 104.1 L 295.046 104.1 L 289.142 104.1 L 289.142 104.1 L 283.042 104.1 L 283.042 104.1 L 277.138 104.1 L 277.138 104.1 L 271.038 104.1 L 271.038 104.1 L 265.135 104.1 L 265.135 104.1 L 259.035 104.1 L 259.035 104.1 L 253.131 104.1 L 253.131 104.1 L 247.031 104.1 L 247.031 104.1 L 241.127 104.1 L 241.127 104.1 L 235.027 104.1 L 235.027 104.1 L 229.123 104.1 L 229.123 104.1 L 223.023 104.1 L 223.023 104.1 L 217.119 104.1 L 217.119 104.1 L 211.019 104.1 L 211.019 104.1 L 205.115 104.1 L 205.115 104.1 L 199.015 104.1 L 199.015 104.1 L 193.112 104.1 L 193.112 104.1 L 187.012 104.1 L 187.012 104.1 L 181.108 104.1 L 181.108 104.1 L 175.008 104.1 L 175.008 104.1 L 169.104 104.1 L 169.104 104.1 L 163.004 104.1 L 163.004 104.1 L 157.1 104.1 L 157.1 104.1 L 151 104.1 L 151 104.1 L 145.096 104.1 L 145.096 104.1 L 138.996 104.1 L 138.996 104.1 L 133.092 104.1 L 133.092 104.1 L 126.992 104.1 L 126.992 104.1 L 121.088 104.1 L 121.088 104.1 L 114.988 104.1 L 114.988 104.1 L 109.085 104.1 L 109.085 104.1 L 102.985 104.1 L 102.985 104.1 L 97.0808 104.1 L 97.0808 104.1 L 90.9808 104.1 L 90.9808 104.1 L 85.0769 104.1 L 85.0769 104.1 L 78.9769 104.1 L 78.9769 104.1 L 73.0731 104.1 L 73.0731 104.1 L 66.9731 104.1 L 66.9731 104.1 L 61.0692 104.1 L 61.0692 104.1 L 54.9692 104.1 L 54.9692 104.1 L 49.0654 104.1 L 49.0654 104.1 L 42.9654 104.1 L 42.9654 104.1 L 37.0615 104.1 L 37.0615 104.1 L 30.9615 104.1 L 30.9615 104.1 L 25.0577 104.1 L 25.0577 104.1 L 18.9577 104.1 L 18.9577 104.1 L 13.0538 104.1 L 13.0538 104.1 L 6.95385 104.1 L 6.95385 104.1 L 4 104.1"
         id="path12945" />
      <path
         style="fill:none;stroke:#000000;stroke-width:1"
         d="M 4 104.1 L 4 100.694 L 4 100.694 L 4 94.5944 L 4 94.5944 L 4 88.2389 L 4 88.2389 L 4 82.1389 L 4 82.1389 L 4 75.7833 L 4 75.7833 L 4 69.6833 L 4 69.6833 L 4 63.3278 L 4 63.3278 L 4 57.2278 L 4 57.2278 L 4 50.8722 L 4 50.8722 L 4 44.7722 L 4 44.7722 L 4 38.4167 L 4 38.4167 L 4 32.3167 L 4 32.3167 L 4 25.9611 L 4 25.9611 L 4 19.8611 L 4 19.8611 L 4 13.5056 L 4 13.5056 L 4 7.40556 L 4 7.40556 L 4 4"
         id="path12947" />
    </g>
    <g
       id="panel2564">
      <path
         style="fill:none;stroke:#000000;stroke-width:1"
         d="M 308.1 4 L 314.506 4 L 314.506 4 L 320.606 4 L 320.606 4 L 326.961 4 L 326.961 4 L 333.061 4 L 333.061 4 L 339.417 4 L 339.417 4 L 345.517 4 L 345.517 4 L 351.872 4 L 351.872 4 L 357.972 4 L 357.972 4 L 364.328 4 L 364.328 4 L 370.428 4 L 370.428 4 L 376.783 4 L 376.783 4 L 382.883 4 L 382.883 4 L 389.239 4 L 389.239 4 L 395.339 4 L 395.339 4 L 401.694 4 L 401.694 4 L 407.794 4 L 407.794 4 L 411.2 4"
         id="path12950" />
      <path
         style="fill:none;stroke:#000000;stroke-width:1"
         d="M 411.2 4 L 411.2 7.40556 L 411.2 7.40556 L 411.2 13.5056 L 411.2 13.5056 L 411.2 19.8611 L 411.2 19.8611 L 411.2 25.9611 L 411.2 25.9611 L 411.2 32.3167 L 411.2 32.3167 L 411.2 38.4167 L 411.2 38.4167 L 411.2 44.7722 L 411.2 44.7722 L 411.2 50.8722 L 411.2 50.8722 L 411.2 57.2278 L 411.2 57.2278 L 411.2 63.3278 L 411.2 63.3278 L 411.2 69.6833 L 411.2 69.6833 L 411.2 75.7833 L 411.2 75.7833 L 411.2 82.1389 L 411.2 82.1389 L 411.2 88.2389 L 411.2 88.2389 L 411.2 94.5944 L 411.2 94.5944 L 411.2 100.694 L 411.2 100.694 L 411.2 104.1"
         id="path12952" />
      <path
         style="fill:none;stroke:#000000;stroke-width:1"
         d="M 411.2 104.1 L 407.794 104.1 L 407.794 104.1 L 401.694 104.1 L 401.694 104.1 L 395.339 104.1 L 395.339 104.1 L 389.239 104.1 L 389.239 104.1 L 382.883 104.1 L 382.883 104.1 L 376.783 104.1 L 376.783 104.1 L 370.428 104.1 L 370.428 104.1 L 364.328 104.1 L 364.328 104.1 L 357.972 104.1 L 357.972 104.1 L 351.872 104.1 L 351.872 104.1 L 345.517 104.1 L 345.517 104.1 L 339.417 104.1 L 339.417 104.1 L 333.061 104.1 L 333.061 104.1 L 326.961 104.1 L 326.961 104.1 L 320.606 104.1 L 320.606 104.1 L 314.506 104.1 L 314.506 104.1 L 308.1 104.1"
         id="path12954" />
      <path
         style="fill:none;stroke:#000000;stroke-width:1"
         d="M 308.1 104.1 L 308.1 100.594 L 311.1 100.594 L 311.1 94.6944 L 308.1 94.6944 L 308.1 88.1389 L 311.1 88.1389 L 311.1 82.2389 L 308.1 82.2389 L 308.1 75.6833 L 311.1 75.6833 L 311.1 69.7833 L 308.1 69.7833 L 308.1 63.2278 L 311.1 63.2278 L 311.1 57.3278 L 308.1 57.3278 L 308.1 50.7722 L 311.1 50.7722 L 311.1 44.8722 L 308.1 44.8722 L 308.1 38.3167 L 311.1 38.3167 L 311.1 32.4167 L 308.1 32.4167 L 308.1 25.8611 L 311.1 25.8611 L 311.1 19.9611 L 308.1 19.9611 L 308.1 13.4056 L 311.1 13.4056 L 311.1 7.50556 L 308.1 7.50556 L 308.1 4"
         id="path12956" />
    </g>
    <g
       id="panel6338-8"
       transform="translate(3.9719124,-145.76935)">
      <path
         style="fill:none;stroke:#000000;stroke-width:1"
         d="m 4,4 h 2.95385 v 0 h 6.09995 v 0 h 5.9039 v 0 h 6.1 v 0 h 5.9038 v 0 h 6.1 v 0 h 5.9039 v 0 h 6.1 v 0 h 5.9038 v 0 h 6.1 v 0 h 5.9039 v 0 h 6.1 v 0 h 5.9038 v 0 h 6.1 v 0 h 5.9039 v 0 h 6.1 v 0 h 5.9042 v 0 h 6.1 v 0 h 5.903 v 0 h 6.1 v 0 h 5.904 v 0 h 6.1 v 0 h 5.904 v 0 h 6.1 V 4 H 151 v 0 h 6.1 v 0 h 5.904 v 0 h 6.1 v 0 h 5.904 v 0 h 6.1 v 0 h 5.904 v 0 h 6.1 v 0 h 5.903 v 0 h 6.1 v 0 h 5.904 v 0 h 6.1 v 0 h 5.904 v 0 h 6.1 v 0 h 5.904 v 0 h 6.1 v 0 h 5.904 v 0 h 6.1 v 0 h 5.904 v 0 h 6.1 v 0 h 5.903 v 0 h 6.1 v 0 h 5.904 v 0 h 6.1 v 0 h 5.904 v 0 h 6.1 v 0 h 2.954"
         id="path12941-8" />
      <path
         style="fill:none;stroke:#000000;stroke-width:1"
         d="m 304.1,4 v 3.40556 h 3 v 6.10004 h -3 v 6.3555 h 3 v 6.1 h -3 v 6.3556 h 3 v 6.1 h -3 v 6.3555 h 3 v 6.1 h -3 v 6.3556 h 3 v 6.1 h -3 v 6.3555 h 3 v 6.1 h -3 v 6.3556 h 3 v 6.1 h -3 v 6.3555 h 3 v 6.0996 h -3 v 3.406"
         id="path12943-1" />
      <path
         style="fill:none;stroke:#000000;stroke-width:1"
         d="m 304.1,104.1 h -2.954 v 0 h -6.1 v 0 h -5.904 v 0 h -6.1 v 0 h -5.904 v 0 h -6.1 v 0 h -5.903 v 0 h -6.1 v 0 h -5.904 v 0 h -6.1 v 0 h -5.904 v 0 h -6.1 v 0 h -5.904 v 0 h -6.1 v 0 h -5.904 v 0 h -6.1 v 0 h -5.904 v 0 h -6.1 v 0 h -5.903 v 0 h -6.1 v 0 h -5.904 v 0 h -6.1 v 0 h -5.904 v 0 h -6.1 v 0 H 157.1 v 0 H 151 v 0 h -5.904 v 0 h -6.1 v 0 h -5.904 v 0 h -6.1 v 0 h -5.904 v 0 h -6.1 v 0 h -5.903 v 0 h -6.1 v 0 h -5.9042 v 0 h -6.1 v 0 h -5.9039 v 0 h -6.1 v 0 h -5.9038 v 0 h -6.1 v 0 h -5.9039 v 0 h -6.1 v 0 h -5.9038 v 0 h -6.1 v 0 h -5.9039 v 0 h -6.1 v 0 h -5.9038 v 0 h -6.1 v 0 h -5.9039 v 0 H 6.95385 v 0 H 4"
         id="path12945-2" />
      <path
         style="fill:none;stroke:#000000;stroke-width:1"
         d="m 4,104.1 v -3.406 0 -6.0996 0 -6.3555 0 -6.1 0 -6.3556 0 -6.1 0 -6.3555 0 -6.1 0 -6.3556 0 -6.1 0 -6.3555 0 -6.1 0 -6.3556 0 -6.1 0 -6.3555 0 -6.10004 0 V 4"
         id="path12947-8" />
    </g>
    <g
       id="panel2564-7"
       transform="translate(3.9719124,-145.76935)">
      <path
         style="fill:none;stroke:#000000;stroke-width:1"
         d="m 308.1,4 h 6.406 v 0 h 6.1 v 0 h 6.355 v 0 h 6.1 v 0 h 6.356 v 0 h 6.1 v 0 h 6.355 v 0 h 6.1 v 0 h 6.356 v 0 h 6.1 v 0 h 6.355 v 0 h 6.1 v 0 h 6.356 v 0 h 6.1 v 0 h 6.355 v 0 h 6.1 v 0 h 3.406"
         id="path12950-4" />
      <path
         style="fill:none;stroke:#000000;stroke-width:1"
         d="m 411.2,4 v 3.40556 0 6.10004 0 6.3555 0 6.1 0 6.3556 0 6.1 0 6.3555 0 6.1 0 6.3556 0 6.1 0 6.3555 0 6.1 0 6.3556 0 6.1 0 6.3555 0 6.0996 0 3.406"
         id="path12952-0" />
      <path
         style="fill:none;stroke:#000000;stroke-width:1"
         d="m 411.2,104.1 h -3.406 v 0 h -6.1 v 0 h -6.355 v 0 h -6.1 v 0 h -6.356 v 0 h -6.1 v 0 h -6.355 v 0 h -6.1 v 0 h -6.356 v 0 h -6.1 v 0 h -6.355 v 0 h -6.1 v 0 h -6.356 v 0 h -6.1 v 0 h -6.355 v 0 h -6.1 v 0 H 308.1"
         id="path12954-7" />
      <path
         style="fill:none;stroke:#000000;stroke-width:1"
         d="m 308.1,104.1 v -3.506 h 3 v -5.8996 h -3 v -6.5555 h 3 v -5.9 h -3 v -6.5556 h 3 v -5.9 h -3 v -6.5555 h 3 v -5.9 h -3 v -6.5556 h 3 v -5.9 h -3 v -6.5555 h 3 v -5.9 h -3 v -6.5556 h 3 v -5.9 h -3 v -6.5555 h 3 V 7.50556 h -3 V 4"
         id="path12956-3" />
    </g>
  </g>
</svg>
