<?xml version="1.0" encoding="UTF-8" standalone="no"?>
<!-- Created with Inkscape (http://www.inkscape.org/) -->

<svg
   width="210mm"
   height="297mm"
   viewBox="0 0 210 297"
   version="1.1"
   id="svg5"
   inkscape:version="1.1.1 (3bf5ae0d25, 2021-09-20)"
   sodipodi:docname="plexiglerkassi.svg"
   xmlns:inkscape="http://www.inkscape.org/namespaces/inkscape"
   xmlns:sodipodi="http://sodipodi.sourceforge.net/DTD/sodipodi-0.dtd"
   xmlns="http://www.w3.org/2000/svg"
   xmlns:svg="http://www.w3.org/2000/svg">
  <sodipodi:namedview
     id="namedview7"
     pagecolor="#ffffff"
     bordercolor="#666666"
     borderopacity="1.0"
     inkscape:pageshadow="2"
     inkscape:pageopacity="0.0"
     inkscape:pagecheckerboard="0"
     inkscape:document-units="mm"
     showgrid="false"
     inkscape:zoom="0.64052329"
     inkscape:cx="397.33138"
     inkscape:cy="561.25984"
     inkscape:window-width="1920"
     inkscape:window-height="1001"
     inkscape:window-x="-9"
     inkscape:window-y="-9"
     inkscape:window-maximized="1"
     inkscape:current-layer="layer1" />
  <defs
     id="defs2" />
  <g
     inkscape:label="Layer 1"
     inkscape:groupmode="layer"
     id="layer1">
    <g
       id="panel176-5-6"
       transform="translate(-120.2557,-7.63345)">
      <path
         style="fill:none;stroke:#000000;stroke-width:1"
         d="m 108.1,4 h 6.406 v 0 h 6.1 v 0 h 6.355 v 0 h 6.1 v 0 h 6.356 v 0 h 6.1 v 0 h 6.355 v 0 h 6.1 v 0 h 6.356 v 0 h 6.1 v 0 h 6.355 v 0 h 6.1 v 0 h 6.356 v 0 h 6.1 v 0 h 6.355 v 0 h 6.1 v 0 h 6.406"
         id="path267-23-92" />
      <path
         style="fill:none;stroke:#000000;stroke-width:1"
         d="m 214.2,4 v 3.50556 h -3 v 5.90004 h 3 v 6.5555 h -3 v 5.9 h 3 v 6.5556 h -3 v 5.9 h 3 v 6.5555 h -3 v 5.9 h 3 v 6.5556 h -3 v 5.9 h 3 v 6.5555 h -3 v 5.9 h 3 v 6.5556 h -3 v 5.9 h 3 v 6.5555 h -3 v 5.8996 h 3 v 3.506"
         id="path269-7-7" />
      <path
         style="fill:none;stroke:#000000;stroke-width:1"
         d="m 214.2,104.1 h -6.406 v 3 h -6.1 v -3 h -6.355 v 3 h -6.1 v -3 h -6.356 v 3 h -6.1 v -3 h -6.355 v 3 h -6.1 v -3 h -6.356 v 3 h -6.1 v -3 h -6.355 v 3 h -6.1 v -3 h -6.356 v 3 h -6.1 v -3 h -6.355 v 3 h -6.1 v -3 H 108.1"
         id="path271-2-2" />
      <path
         style="fill:none;stroke:#000000;stroke-width:1"
         d="m 108.1,104.1 v -3.506 h 3 v -5.8996 h -3 v -6.5555 h 3 v -5.9 h -3 v -6.5556 h 3 v -5.9 h -3 v -6.5555 h 3 v -5.9 h -3 v -6.5556 h 3 v -5.9 h -3 v -6.5555 h 3 v -5.9 h -3 v -6.5556 h 3 v -5.9 h -3 v -6.5555 h 3 V 7.50556 h -3 V 4"
         id="path273-1-09" />
    </g>
    <g
       id="panel176-5-6-9"
       transform="translate(14.40633,50.60994)">
      <path
         style="fill:none;stroke:#000000;stroke-width:1"
         d="m 108.1,4 h 6.406 v 0 h 6.1 v 0 h 6.355 v 0 h 6.1 v 0 h 6.356 v 0 h 6.1 v 0 h 6.355 v 0 h 6.1 v 0 h 6.356 v 0 h 6.1 v 0 h 6.355 v 0 h 6.1 v 0 h 6.356 v 0 h 6.1 v 0 h 6.355 v 0 h 6.1 v 0 h 6.406"
         id="path267-23-92-7" />
      <path
         style="fill:none;stroke:#000000;stroke-width:1"
         d="m 214.2,4 v 3.50556 h -3 v 5.90004 h 3 v 6.5555 h -3 v 5.9 h 3 v 6.5556 h -3 v 5.9 h 3 v 6.5555 h -3 v 5.9 h 3 v 6.5556 h -3 v 5.9 h 3 v 6.5555 h -3 v 5.9 h 3 v 6.5556 h -3 v 5.9 h 3 v 6.5555 h -3 v 5.8996 h 3 v 3.506"
         id="path269-7-7-9" />
      <path
         style="fill:none;stroke:#000000;stroke-width:1"
         d="m 214.2,104.1 h -6.406 v 3 h -6.1 v -3 h -6.355 v 3 h -6.1 v -3 h -6.356 v 3 h -6.1 v -3 h -6.355 v 3 h -6.1 v -3 h -6.356 v 3 h -6.1 v -3 h -6.355 v 3 h -6.1 v -3 h -6.356 v 3 h -6.1 v -3 h -6.355 v 3 h -6.1 v -3 H 108.1"
         id="path271-2-2-0" />
      <path
         style="fill:none;stroke:#000000;stroke-width:1"
         d="m 108.1,104.1 v -3.506 h 3 v -5.8996 h -3 v -6.5555 h 3 v -5.9 h -3 v -6.5556 h 3 v -5.9 h -3 v -6.5555 h 3 v -5.9 h -3 v -6.5556 h 3 v -5.9 h -3 v -6.5555 h 3 v -5.9 h -3 v -6.5556 h 3 v -5.9 h -3 v -6.5555 h 3 V 7.50556 h -3 V 4"
         id="path273-1-09-4" />
    </g>
    <g
       id="panel176-5-6-97"
       transform="translate(-122.32107,127.02858)">
      <path
         style="fill:none;stroke:#000000;stroke-width:1"
         d="m 108.1,4 h 6.406 v 0 h 6.1 v 0 h 6.355 v 0 h 6.1 v 0 h 6.356 v 0 h 6.1 v 0 h 6.355 v 0 h 6.1 v 0 h 6.356 v 0 h 6.1 v 0 h 6.355 v 0 h 6.1 v 0 h 6.356 v 0 h 6.1 v 0 h 6.355 v 0 h 6.1 v 0 h 6.406"
         id="path267-23-92-2" />
      <path
         style="fill:none;stroke:#000000;stroke-width:1"
         d="m 214.2,4 v 3.50556 h -3 v 5.90004 h 3 v 6.5555 h -3 v 5.9 h 3 v 6.5556 h -3 v 5.9 h 3 v 6.5555 h -3 v 5.9 h 3 v 6.5556 h -3 v 5.9 h 3 v 6.5555 h -3 v 5.9 h 3 v 6.5556 h -3 v 5.9 h 3 v 6.5555 h -3 v 5.8996 h 3 v 3.506"
         id="path269-7-7-6" />
      <path
         style="fill:none;stroke:#000000;stroke-width:1"
         d="m 214.2,104.1 h -6.406 v 3 h -6.1 v -3 h -6.355 v 3 h -6.1 v -3 h -6.356 v 3 h -6.1 v -3 h -6.355 v 3 h -6.1 v -3 h -6.356 v 3 h -6.1 v -3 h -6.355 v 3 h -6.1 v -3 h -6.356 v 3 h -6.1 v -3 h -6.355 v 3 h -6.1 v -3 H 108.1"
         id="path271-2-2-06" />
      <path
         style="fill:none;stroke:#000000;stroke-width:1"
         d="m 108.1,104.1 v -3.506 h 3 v -5.8996 h -3 v -6.5555 h 3 v -5.9 h -3 v -6.5556 h 3 v -5.9 h -3 v -6.5555 h 3 v -5.9 h -3 v -6.5556 h 3 v -5.9 h -3 v -6.5555 h 3 v -5.9 h -3 v -6.5556 h 3 v -5.9 h -3 v -6.5555 h 3 V 7.50556 h -3 V 4"
         id="path273-1-09-9" />
    </g>
  </g>
</svg>
